<?xml version="1.0" encoding="UTF-8" standalone="no"?>
<!DOCTYPE svg PUBLIC "-//W3C//DTD SVG 1.1//EN" "http://www.w3.org/Graphics/SVG/1.1/DTD/svg11.dtd">
<svg xmlns="http://www.w3.org/2000/svg" version="1.1" viewBox="0.00 0.00 133.00 86.00">
<g stroke-width="2.00" fill="none" stroke-linecap="butt">
<path stroke="#ffdbdb" vector-effect="non-scaling-stroke" d="
  M 38.43 32.55
  Q 38.40 33.23 38.81 33.06"
/>
<path stroke="#80dfd3" vector-effect="non-scaling-stroke" d="
  M 38.81 33.06
  Q 35.01 34.84 34.51 38.25
  Q 32.81 49.93 33.91 63.77"
/>
<path stroke="#9797a0" vector-effect="non-scaling-stroke" d="
  M 33.91 63.77
  Q 32.71 67.54 34.78 69.93"
/>
<path stroke="#cfd0d4" vector-effect="non-scaling-stroke" d="
  M 34.78 69.93
  Q 20.14 70.15 6.00 70.22
  Q 5.57 70.22 5.28 70.64
  A 0.36 0.36 0.0 0 0 5.57 71.21
  L 38.21 71.19"
/>
<path stroke="#9797a0" vector-effect="non-scaling-stroke" d="
  M 38.21 71.19
  Q 43.37 72.12 48.31 71.17"
/>
<path stroke="#cfd0d4" vector-effect="non-scaling-stroke" d="
  M 48.31 71.17
  L 60.46 71.14"
/>
<path stroke="#9797a0" vector-effect="non-scaling-stroke" d="
  M 60.46 71.14
  L 75.97 71.19"
/>
<path stroke="#cfd0d4" vector-effect="non-scaling-stroke" d="
  M 75.97 71.19
  Q 88.51 71.28 101.08 71.32
  C 101.82 71.33 102.04 71.08 102.73 70.94"
/>
<path stroke="#9797a0" vector-effect="non-scaling-stroke" d="
  M 102.73 70.94
  L 104.46 71.24"
/>
<path stroke="#cfd0d4" vector-effect="non-scaling-stroke" d="
  M 104.46 71.24
  L 127.19 71.25
  Q 127.45 71.25 127.45 70.99
  L 127.44 70.65
  A 0.55 0.54 -0.0 0 0 126.89 70.11
  L 104.73 70.17"
/>
<path stroke="#9797a0" vector-effect="non-scaling-stroke" d="
  M 104.73 70.17
  Q 106.47 63.60 107.23 56.75
  Q 107.37 55.53 107.26 54.34
  C 107.18 53.54 106.40 52.79 105.59 52.92
  Q 105.08 53.00 104.86 53.46
  L 100.92 61.94"
/>
<path stroke="#ffdbdb" vector-effect="non-scaling-stroke" d="
  M 100.92 61.94
  L 95.32 61.78"
/>
<path stroke="#9797a0" vector-effect="non-scaling-stroke" d="
  M 95.32 61.78
  Q 86.52 58.18 77.82 54.45
  Q 75.20 53.32 72.94 53.40
  Q 67.51 53.58 62.00 53.60
  Q 61.48 53.60 61.29 53.11
  L 59.56 48.57"
/>
<path stroke="#80dfd3" vector-effect="non-scaling-stroke" d="
  M 59.56 48.57
  L 68.37 44.45"
/>
<path stroke="#ffdbdb" vector-effect="non-scaling-stroke" d="
  M 68.37 44.45
  Q 70.14 43.93 71.19 42.55
  Q 71.49 42.16 71.96 42.03
  Q 74.61 41.31 75.39 39.38
  Q 76.11 37.58 73.69 37.21"
/>
<path stroke="#9797a0" vector-effect="non-scaling-stroke" d="
  M 73.69 37.21
  Q 74.74 34.62 75.33 31.92
  Q 75.67 30.34 74.06 30.43"
/>
<path stroke="#feb4c1" vector-effect="non-scaling-stroke" d="
  M 74.06 30.43
  L 63.11 25.55
  A 1.28 1.27 -72.9 0 0 61.34 26.49
  L 58.98 39.38"
/>
<path stroke="#9797a0" vector-effect="non-scaling-stroke" d="
  M 58.98 39.38
  Q 58.22 40.81 58.77 42.32"
/>
<path stroke="#80dfd3" vector-effect="non-scaling-stroke" d="
  M 58.77 42.32
  Q 57.90 43.04 56.24 43.54"
/>
<path stroke="#9797a0" vector-effect="non-scaling-stroke" d="
  M 56.24 43.54
  Q 55.15 42.88 54.10 42.72"
/>
<path stroke="#80dfd3" vector-effect="non-scaling-stroke" d="
  M 54.10 42.72
  L 48.23 37.82
  Q 47.85 37.50 47.78 37.01
  L 47.14 32.77"
/>
<path stroke="#ffdbdb" vector-effect="non-scaling-stroke" d="
  M 47.14 32.77
  Q 46.72 32.75 46.99 31.89"
/>
<path stroke="#9797a0" vector-effect="non-scaling-stroke" d="
  M 46.99 31.89
  Q 48.95 31.00 47.94 28.90"
/>
<path stroke="#ffdbdb" vector-effect="non-scaling-stroke" d="
  M 47.94 28.90
  Q 49.66 26.62 50.17 23.68"
/>
<path stroke="#9797a0" vector-effect="non-scaling-stroke" d="
  M 50.17 23.68
  Q 55.38 22.01 49.78 17.20
  Q 49.40 16.88 48.92 16.80
  L 47.33 16.57
  A 0.97 0.96 -1.2 0 1 46.52 15.80
  C 46.08 13.58 42.17 14.06 40.74 14.74
  Q 37.50 16.28 34.86 18.52
  Q 34.32 18.98 34.36 19.70
  L 34.48 21.56
  Q 34.54 22.47 33.88 23.10
  Q 33.19 23.76 32.77 24.57
  Q 32.50 25.09 32.73 25.63
  Q 34.57 30.06 38.43 32.55"
/>
<path stroke="#97727c" vector-effect="non-scaling-stroke" d="
  M 50.17 23.68
  Q 50.04 22.48 49.47 21.83
  Q 49.09 21.40 48.66 21.79
  Q 45.37 24.76 41.41 24.41
  Q 40.41 24.32 40.67 25.29
  L 41.58 28.64
  A 1.77 1.77 0.0 0 1 40.99 30.46
  L 38.43 32.55"
/>
<path stroke="#97727c" vector-effect="non-scaling-stroke" d="
  M 47.94 28.90
  Q 46.80 29.39 46.09 30.36
  Q 45.78 30.80 46.04 31.26
  Q 46.31 31.72 46.99 31.89"
/>
<path stroke="#80bbae" vector-effect="non-scaling-stroke" d="
  M 47.14 32.77
  L 38.81 33.06"
/>
<path stroke="#187774" vector-effect="non-scaling-stroke" d="
  M 54.10 42.72
  L 50.91 44.01
  Q 50.63 44.13 50.76 44.41
  L 50.90 44.70
  A 0.67 0.67 0.0 0 0 51.72 45.06
  L 56.24 43.54"
/>
<path stroke="#187774" vector-effect="non-scaling-stroke" d="
  M 58.77 42.32
  Q 61.54 42.06 64.37 40.81
  Q 64.85 40.60 65.20 40.99
  L 65.75 41.59"
/>
<path stroke="#80bbae" vector-effect="non-scaling-stroke" d="
  M 65.75 41.59
  Q 65.70 44.45 68.37 44.45"
/>
<path stroke="#187774" vector-effect="non-scaling-stroke" d="
  M 59.56 48.57
  L 48.74 53.13
  Q 48.22 53.35 47.83 52.95
  L 44.52 49.58
  A 0.64 0.64 0.0 0 0 43.68 49.51
  Q 41.11 51.43 39.37 53.88
  Q 35.84 58.84 33.91 63.77"
/>
<path stroke="#97727c" vector-effect="non-scaling-stroke" d="
  M 65.75 41.59
  Q 66.77 40.40 68.27 39.82"
/>
<path stroke="#97727c" vector-effect="non-scaling-stroke" d="
  M 95.32 61.78
  L 93.13 66.95"
/>
<path stroke="#9797a0" vector-effect="non-scaling-stroke" d="
  M 93.13 66.95
  Q 93.10 67.88 91.53 67.43
  Q 84.08 65.30 76.59 63.23
  Q 74.68 62.70 72.88 63.11
  Q 71.03 63.53 69.19 64.08"
/>
<path stroke="#97727c" vector-effect="non-scaling-stroke" d="
  M 69.19 64.08
  Q 68.66 64.54 67.59 64.09
  Q 64.43 62.77 62.51 60.18
  A 0.69 0.69 0.0 0 0 61.55 60.03
  L 59.98 61.15
  Q 59.43 61.54 59.62 62.19
  Q 60.09 63.78 59.98 65.29
  Q 59.94 65.88 60.50 66.03
  L 67.72 68.05
  Q 68.42 68.24 68.47 67.52
  L 68.67 64.78
  Q 68.67 64.75 68.70 64.73
  Q 69.82 64.09 68.57 64.63"
/>
<path stroke="#9797a0" vector-effect="non-scaling-stroke" d="
  M 68.57 64.63
  Q 75.59 66.30 77.99 69.99"
/>
<path stroke="#676775" vector-effect="non-scaling-stroke" d="
  M 77.99 69.99
  Q 76.52 71.17 75.97 71.19"
/>
<path stroke="#676775" vector-effect="non-scaling-stroke" d="
  M 60.46 71.14
  Q 59.96 71.26 59.72 70.28"
/>
<path stroke="#9797a0" vector-effect="non-scaling-stroke" d="
  M 59.72 70.28
  Q 59.88 69.02 59.50 67.59
  Q 59.37 67.08 58.87 67.22
  L 49.85 69.78"
/>
<path stroke="#676775" vector-effect="non-scaling-stroke" d="
  M 49.85 69.78
  Q 49.34 70.79 48.31 71.17"
/>
<path stroke="#676775" vector-effect="non-scaling-stroke" d="
  M 38.21 71.19
  Q 36.27 70.88 34.78 69.93"
/>
<path stroke="#964c62" vector-effect="non-scaling-stroke" d="
  M 74.06 30.43
  Q 73.08 34.22 72.00 36.50
  Q 71.46 37.64 69.89 39.39"
/>
<path stroke="#fe909c" vector-effect="non-scaling-stroke" d="
  M 69.89 39.39
  Q 69.23 39.81 68.27 39.82"
/>
<path stroke="#964c62" vector-effect="non-scaling-stroke" d="
  M 68.27 39.82
  Q 63.50 40.36 58.98 39.38"
/>
<path stroke="#97727c" vector-effect="non-scaling-stroke" d="
  M 73.69 37.21
  Q 73.09 38.18 72.37 39.13
  Q 71.85 39.81 71.27 39.82
  Q 70.62 39.82 69.89 39.39"
/>
<path stroke="#cfabb0" vector-effect="non-scaling-stroke" d="
  M 101.37 68.99
  L 101.20 69.26"
/>
<path stroke="#ffdbdb" vector-effect="non-scaling-stroke" d="
  M 101.20 69.26
  L 93.13 66.95"
/>
<path stroke="#cfd0d4" vector-effect="non-scaling-stroke" d="
  M 59.72 70.28
  L 49.85 69.78"
/>
<path stroke="#ffdbdb" vector-effect="non-scaling-stroke" d="
  M 69.19 64.08
  Q 69.45 64.38 68.57 64.63"
/>
<path stroke="#cfd0d4" vector-effect="non-scaling-stroke" d="
  M 101.20 69.26
  Q 101.74 69.68 100.86 70.05
  A 0.70 0.65 33.0 0 1 100.63 70.09
  L 77.99 69.99"
/>
<path stroke="#676775" vector-effect="non-scaling-stroke" d="
  M 104.73 70.17
  L 104.46 71.24"
/>
<path stroke="#676775" vector-effect="non-scaling-stroke" d="
  M 102.73 70.94
  Q 101.31 70.03 101.37 68.99"
/>
<path stroke="#97727c" vector-effect="non-scaling-stroke" d="
  M 101.37 68.99
  L 104.48 63.12
  A 0.73 0.73 0.0 0 0 103.86 62.06
  L 100.92 61.94"
/>
<path stroke="#187774" vector-effect="non-scaling-stroke" d="
  M 53.22 59.26
  L 52.66 56.99
  Q 52.46 56.14 52.33 57.00
  L 51.99 59.28
  Q 51.93 59.64 52.29 59.70
  L 52.74 59.78
  Q 53.37 59.88 53.22 59.26"
/>
</g>
<path fill="#ffffff" d="
  M 8.62 0.00
  L 124.48 0.00
  Q 131.51 1.80 133.00 8.61
  L 133.00 77.23
  Q 131.41 84.46 124.38 86.00
  L 8.76 86.00
  Q 1.55 84.42 0.00 77.38
  L 0.00 8.77
  Q 1.57 1.56 8.62 0.00
  Z
  M 38.43 32.55
  Q 38.40 33.23 38.81 33.06
  Q 35.01 34.84 34.51 38.25
  Q 32.81 49.93 33.91 63.77
  Q 32.71 67.54 34.78 69.93
  Q 20.14 70.15 6.00 70.22
  Q 5.57 70.22 5.28 70.64
  A 0.36 0.36 0.0 0 0 5.57 71.21
  L 38.21 71.19
  Q 43.37 72.12 48.31 71.17
  L 60.46 71.14
  L 75.97 71.19
  Q 88.51 71.28 101.08 71.32
  C 101.82 71.33 102.04 71.08 102.73 70.94
  L 104.46 71.24
  L 127.19 71.25
  Q 127.45 71.25 127.45 70.99
  L 127.44 70.65
  A 0.55 0.54 -0.0 0 0 126.89 70.11
  L 104.73 70.17
  Q 106.47 63.60 107.23 56.75
  Q 107.37 55.53 107.26 54.34
  C 107.18 53.54 106.40 52.79 105.59 52.92
  Q 105.08 53.00 104.86 53.46
  L 100.92 61.94
  L 95.32 61.78
  Q 86.52 58.18 77.82 54.45
  Q 75.20 53.32 72.94 53.40
  Q 67.51 53.58 62.00 53.60
  Q 61.48 53.60 61.29 53.11
  L 59.56 48.57
  L 68.37 44.45
  Q 70.14 43.93 71.19 42.55
  Q 71.49 42.16 71.96 42.03
  Q 74.61 41.31 75.39 39.38
  Q 76.11 37.58 73.69 37.21
  Q 74.74 34.62 75.33 31.92
  Q 75.67 30.34 74.06 30.43
  L 63.11 25.55
  A 1.28 1.27 -72.9 0 0 61.34 26.49
  L 58.98 39.38
  Q 58.22 40.81 58.77 42.32
  Q 57.90 43.04 56.24 43.54
  Q 55.15 42.88 54.10 42.72
  L 48.23 37.82
  Q 47.85 37.50 47.78 37.01
  L 47.14 32.77
  Q 46.72 32.75 46.99 31.89
  Q 48.95 31.00 47.94 28.90
  Q 49.66 26.62 50.17 23.68
  Q 55.38 22.01 49.78 17.20
  Q 49.40 16.88 48.92 16.80
  L 47.33 16.57
  A 0.97 0.96 -1.2 0 1 46.52 15.80
  C 46.08 13.58 42.17 14.06 40.74 14.74
  Q 37.50 16.28 34.86 18.52
  Q 34.32 18.98 34.36 19.70
  L 34.48 21.56
  Q 34.54 22.47 33.88 23.10
  Q 33.19 23.76 32.77 24.57
  Q 32.50 25.09 32.73 25.63
  Q 34.57 30.06 38.43 32.55
  Z"
/>
<path fill="#2f2e41" d="
  M 50.17 23.68
  Q 50.04 22.48 49.47 21.83
  Q 49.09 21.40 48.66 21.79
  Q 45.37 24.76 41.41 24.41
  Q 40.41 24.32 40.67 25.29
  L 41.58 28.64
  A 1.77 1.77 0.0 0 1 40.99 30.46
  L 38.43 32.55
  Q 34.57 30.06 32.73 25.63
  Q 32.50 25.09 32.77 24.57
  Q 33.19 23.76 33.88 23.10
  Q 34.54 22.47 34.48 21.56
  L 34.36 19.70
  Q 34.32 18.98 34.86 18.52
  Q 37.50 16.28 40.74 14.74
  C 42.17 14.06 46.08 13.58 46.52 15.80
  A 0.97 0.96 -1.2 0 0 47.33 16.57
  L 48.92 16.80
  Q 49.40 16.88 49.78 17.20
  Q 55.38 22.01 50.17 23.68
  Z"
/>
<path fill="#ffb6b6" d="
  M 50.17 23.68
  Q 49.66 26.62 47.94 28.90
  Q 46.80 29.39 46.09 30.36
  Q 45.78 30.80 46.04 31.26
  Q 46.31 31.72 46.99 31.89
  Q 46.72 32.75 47.14 32.77
  L 38.81 33.06
  Q 38.40 33.23 38.43 32.55
  L 40.99 30.46
  A 1.77 1.77 0.0 0 0 41.58 28.64
  L 40.67 25.29
  Q 40.41 24.32 41.41 24.41
  Q 45.37 24.76 48.66 21.79
  Q 49.09 21.40 49.47 21.83
  Q 50.04 22.48 50.17 23.68
  Z"
/>
<path fill="#fd6982" d="
  M 74.06 30.43
  Q 73.08 34.22 72.00 36.50
  Q 71.46 37.64 69.89 39.39
  Q 69.23 39.81 68.27 39.82
  Q 63.50 40.36 58.98 39.38
  L 61.34 26.49
  A 1.28 1.27 -72.9 0 1 63.11 25.55
  L 74.06 30.43
  Z"
/>
<path fill="#2f2e41" d="
  M 47.94 28.90
  Q 48.95 31.00 46.99 31.89
  Q 46.31 31.72 46.04 31.26
  Q 45.78 30.80 46.09 30.36
  Q 46.80 29.39 47.94 28.90
  Z"
/>
<path fill="#2f2e41" d="
  M 74.06 30.43
  Q 75.67 30.34 75.33 31.92
  Q 74.74 34.62 73.69 37.21
  Q 73.09 38.18 72.37 39.13
  Q 71.85 39.81 71.27 39.82
  Q 70.62 39.82 69.89 39.39
  Q 71.46 37.64 72.00 36.50
  Q 73.08 34.22 74.06 30.43
  Z"
/>
<path fill="#00bfa6" d="
  M 47.14 32.77
  L 47.78 37.01
  Q 47.85 37.50 48.23 37.82
  L 54.10 42.72
  L 50.91 44.01
  Q 50.63 44.13 50.76 44.41
  L 50.90 44.70
  A 0.67 0.67 0.0 0 0 51.72 45.06
  L 56.24 43.54
  Q 57.90 43.04 58.77 42.32
  Q 61.54 42.06 64.37 40.81
  Q 64.85 40.60 65.20 40.99
  L 65.75 41.59
  Q 65.70 44.45 68.37 44.45
  L 59.56 48.57
  L 48.74 53.13
  Q 48.22 53.35 47.83 52.95
  L 44.52 49.58
  A 0.64 0.64 0.0 0 0 43.68 49.51
  Q 41.11 51.43 39.37 53.88
  Q 35.84 58.84 33.91 63.77
  Q 32.81 49.93 34.51 38.25
  Q 35.01 34.84 38.81 33.06
  L 47.14 32.77
  Z"
/>
<path fill="#ffb6b6" d="
  M 73.69 37.21
  Q 76.11 37.58 75.39 39.38
  Q 74.61 41.31 71.96 42.03
  Q 71.49 42.16 71.19 42.55
  Q 70.14 43.93 68.37 44.45
  Q 65.70 44.45 65.75 41.59
  Q 66.77 40.40 68.27 39.82
  Q 69.23 39.81 69.89 39.39
  Q 70.62 39.82 71.27 39.82
  Q 71.85 39.81 72.37 39.13
  Q 73.09 38.18 73.69 37.21
  Z"
/>
<path fill="#2f2e41" d="
  M 58.98 39.38
  Q 63.50 40.36 68.27 39.82
  Q 66.77 40.40 65.75 41.59
  L 65.20 40.99
  Q 64.85 40.60 64.37 40.81
  Q 61.54 42.06 58.77 42.32
  Q 58.22 40.81 58.98 39.38
  Z"
/>
<path fill="#2f2e41" d="
  M 54.10 42.72
  Q 55.15 42.88 56.24 43.54
  L 51.72 45.06
  A 0.67 0.67 0.0 0 1 50.90 44.70
  L 50.76 44.41
  Q 50.63 44.13 50.91 44.01
  L 54.10 42.72
  Z"
/>
<path fill="#2f2e41" d="
  M 59.56 48.57
  L 61.29 53.11
  Q 61.48 53.60 62.00 53.60
  Q 67.51 53.58 72.94 53.40
  Q 75.20 53.32 77.82 54.45
  Q 86.52 58.18 95.32 61.78
  L 93.13 66.95
  Q 93.10 67.88 91.53 67.43
  Q 84.08 65.30 76.59 63.23
  Q 74.68 62.70 72.88 63.11
  Q 71.03 63.53 69.19 64.08
  Q 68.66 64.54 67.59 64.09
  Q 64.43 62.77 62.51 60.18
  A 0.69 0.69 0.0 0 0 61.55 60.03
  L 59.98 61.15
  Q 59.43 61.54 59.62 62.19
  Q 60.09 63.78 59.98 65.29
  Q 59.94 65.88 60.50 66.03
  L 67.72 68.05
  Q 68.42 68.24 68.47 67.52
  L 68.67 64.78
  Q 68.67 64.75 68.70 64.73
  Q 69.82 64.09 68.57 64.63
  Q 75.59 66.30 77.99 69.99
  Q 76.52 71.17 75.97 71.19
  L 60.46 71.14
  Q 59.96 71.26 59.72 70.28
  Q 59.88 69.02 59.50 67.59
  Q 59.37 67.08 58.87 67.22
  L 49.85 69.78
  Q 49.34 70.79 48.31 71.17
  Q 43.37 72.12 38.21 71.19
  Q 36.27 70.88 34.78 69.93
  Q 32.71 67.54 33.91 63.77
  Q 35.84 58.84 39.37 53.88
  Q 41.11 51.43 43.68 49.51
  A 0.64 0.64 0.0 0 1 44.52 49.58
  L 47.83 52.95
  Q 48.22 53.35 48.74 53.13
  L 59.56 48.57
  Z
  M 53.22 59.26
  L 52.66 56.99
  Q 52.46 56.14 52.33 57.00
  L 51.99 59.28
  Q 51.93 59.64 52.29 59.70
  L 52.74 59.78
  Q 53.37 59.88 53.22 59.26
  Z"
/>
<path fill="#2f2e41" d="
  M 104.73 70.17
  L 104.46 71.24
  L 102.73 70.94
  Q 101.31 70.03 101.37 68.99
  L 104.48 63.12
  A 0.73 0.73 0.0 0 0 103.86 62.06
  L 100.92 61.94
  L 104.86 53.46
  Q 105.08 53.00 105.59 52.92
  C 106.40 52.79 107.18 53.54 107.26 54.34
  Q 107.37 55.53 107.23 56.75
  Q 106.47 63.60 104.73 70.17
  Z"
/>
<path fill="#00bfa6" d="
  M 52.66 56.99
  L 53.22 59.26
  Q 53.37 59.88 52.74 59.78
  L 52.29 59.70
  Q 51.93 59.64 51.99 59.28
  L 52.33 57.00
  Q 52.46 56.14 52.66 56.99
  Z"
/>
<path fill="#ffb6b6" d="
  M 69.19 64.08
  Q 69.45 64.38 68.57 64.63
  Q 69.82 64.09 68.70 64.73
  Q 68.67 64.75 68.67 64.78
  L 68.47 67.52
  Q 68.42 68.24 67.72 68.05
  L 60.50 66.03
  Q 59.94 65.88 59.98 65.29
  Q 60.09 63.78 59.62 62.19
  Q 59.43 61.54 59.98 61.15
  L 61.55 60.03
  A 0.69 0.69 0.0 0 1 62.51 60.18
  Q 64.43 62.77 67.59 64.09
  Q 68.66 64.54 69.19 64.08
  Z"
/>
<path fill="#ffb6b6" d="
  M 95.32 61.78
  L 100.92 61.94
  L 103.86 62.06
  A 0.73 0.73 0.0 0 1 104.48 63.12
  L 101.37 68.99
  L 101.20 69.26
  L 93.13 66.95
  L 95.32 61.78
  Z"
/>
<path fill="#ffffff" d="
  M 93.13 66.95
  L 101.20 69.26
  Q 101.74 69.68 100.86 70.05
  A 0.70 0.65 33.0 0 1 100.63 70.09
  L 77.99 69.99
  Q 75.59 66.30 68.57 64.63
  Q 69.45 64.38 69.19 64.08
  Q 71.03 63.53 72.88 63.11
  Q 74.68 62.70 76.59 63.23
  Q 84.08 65.30 91.53 67.43
  Q 93.10 67.88 93.13 66.95
  Z"
/>
<path fill="#ffffff" d="
  M 59.72 70.28
  L 49.85 69.78
  L 58.87 67.22
  Q 59.37 67.08 59.50 67.59
  Q 59.88 69.02 59.72 70.28
  Z"
/>
<path fill="#9fa0a9" d="
  M 101.37 68.99
  Q 101.31 70.03 102.73 70.94
  C 102.04 71.08 101.82 71.33 101.08 71.32
  Q 88.51 71.28 75.97 71.19
  Q 76.52 71.17 77.99 69.99
  L 100.63 70.09
  A 0.70 0.65 33.0 0 0 100.86 70.05
  Q 101.74 69.68 101.20 69.26
  L 101.37 68.99
  Z"
/>
<path fill="#9fa0a9" d="
  M 34.78 69.93
  Q 36.27 70.88 38.21 71.19
  L 5.57 71.21
  A 0.36 0.36 0.0 0 1 5.28 70.64
  Q 5.57 70.22 6.00 70.22
  Q 20.14 70.15 34.78 69.93
  Z"
/>
<path fill="#9fa0a9" d="
  M 49.85 69.78
  L 59.72 70.28
  Q 59.96 71.26 60.46 71.14
  L 48.31 71.17
  Q 49.34 70.79 49.85 69.78
  Z"
/>
<path fill="#9fa0a9" d="
  M 104.46 71.24
  L 104.73 70.17
  L 126.89 70.11
  A 0.55 0.54 0.0 0 1 127.44 70.65
  L 127.45 70.99
  Q 127.45 71.25 127.19 71.25
  L 104.46 71.24
  Z"
/>
</svg>
