<?xml version="1.0" encoding="UTF-8" standalone="no"?>
<!DOCTYPE svg PUBLIC "-//W3C//DTD SVG 1.1//EN" "http://www.w3.org/Graphics/SVG/1.1/DTD/svg11.dtd">
<svg xmlns="http://www.w3.org/2000/svg" version="1.1" viewBox="0.00 0.00 116.00 119.00">
<g stroke-width="2.00" fill="none" stroke-linecap="butt">
<path stroke="#fddbda" vector-effect="non-scaling-stroke" d="
  M 100.31 16.07
  Q 103.05 21.33 105.76 18.28"
/>
<path stroke="#9797a0" vector-effect="non-scaling-stroke" d="
  M 105.76 18.28
  Q 107.55 16.11 106.27 14.98
  Q 101.78 11.01 100.31 16.07"
/>
<path stroke="#95727b" vector-effect="non-scaling-stroke" d="
  M 105.76 18.28
  Q 104.40 14.22 100.31 16.07"
/>
<path stroke="#9797a0" vector-effect="non-scaling-stroke" d="
  M 97.60 38.23
  L 95.80 61.01
  A 1.46 1.46 0.0 0 0 97.50 62.56
  Q 98.09 62.47 98.69 62.58
  Q 99.43 62.73 99.46 61.97
  Q 99.62 58.73 99.68 55.53
  C 99.75 52.00 101.16 48.80 102.05 45.43
  Q 102.30 44.48 102.56 45.43
  C 103.36 48.45 103.42 51.80 105.41 54.34
  Q 107.36 56.83 108.52 59.74
  Q 108.81 60.47 109.59 60.40
  L 111.56 60.22
  Q 112.26 60.16 111.97 59.52
  Q 110.54 56.28 108.90 53.04
  C 107.99 51.25 107.94 49.34 107.73 47.41
  Q 107.60 46.16 107.79 43.09
  Q 107.97 39.92 107.12 36.56"
/>
<path stroke="#fddbda" vector-effect="non-scaling-stroke" d="
  M 107.12 36.56
  C 107.50 35.07 109.40 34.00 109.48 32.40"
/>
<path stroke="#80dfd3" vector-effect="non-scaling-stroke" d="
  M 109.48 32.40
  Q 109.61 32.18 109.72 31.96
  Q 109.83 31.74 109.83 31.51
  Q 109.84 28.84 109.50 25.56
  C 109.17 22.47 107.06 21.21 104.61 20.12
  Q 103.85 19.78 103.07 20.07
  L 96.06 22.68
  Q 95.36 22.94 95.27 23.68
  L 94.99 25.98
  A 0.42 0.42 0.0 0 0 95.48 26.44
  L 99.48 25.75
  Q 100.03 25.66 100.03 26.21
  Q 100.08 31.41 99.38 33.26
  Q 98.43 35.74 97.60 38.23"
/>
<path stroke="#7dbbae" vector-effect="non-scaling-stroke" d="
  M 109.48 32.40
  Q 108.27 31.66 107.28 31.79
  Q 106.78 31.86 106.51 32.29
  L 102.54 38.70"
/>
<path stroke="#187774" vector-effect="non-scaling-stroke" d="
  M 102.54 38.70
  Q 100.31 38.95 97.60 38.23"
/>
<path stroke="#95727b" vector-effect="non-scaling-stroke" d="
  M 107.12 36.56
  L 104.62 39.54
  A 0.95 0.93 -74.5 0 1 104.07 39.86
  Q 102.92 40.09 102.54 38.70"
/>
<path stroke="#f3f3f3" vector-effect="non-scaling-stroke" d="
  M 84.98 31.65
  A 1.10 1.10 0.0 0 0 83.88 30.55
  L 31.12 30.55
  A 1.10 1.10 0.0 0 0 30.02 31.65
  L 30.02 31.67
  A 1.10 1.10 0.0 0 0 31.12 32.77
  L 83.88 32.77
  A 1.10 1.10 0.0 0 0 84.98 31.67
  L 84.98 31.65"
/>
<path stroke="#f3f3f3" vector-effect="non-scaling-stroke" d="
  M 84.93 36.64
  A 0.90 0.90 0.0 0 0 84.03 35.74
  L 31.01 35.74
  A 0.90 0.90 0.0 0 0 30.11 36.64
  L 30.11 36.98
  A 0.90 0.90 0.0 0 0 31.01 37.88
  L 84.03 37.88
  A 0.90 0.90 0.0 0 0 84.93 36.98
  L 84.93 36.64"
/>
<path stroke="#f3f3f3" vector-effect="non-scaling-stroke" d="
  M 84.98 42.11
  A 1.08 1.08 0.0 0 0 83.90 41.03
  L 31.08 41.03
  A 1.08 1.08 0.0 0 0 30.00 42.11
  L 30.00 42.15
  A 1.08 1.08 0.0 0 0 31.08 43.23
  L 83.90 43.23
  A 1.08 1.08 0.0 0 0 84.98 42.15
  L 84.98 42.11"
/>
<path stroke="#f3f3f3" vector-effect="non-scaling-stroke" d="
  M 84.95 47.33
  A 1.09 1.09 0.0 0 0 83.86 46.24
  L 31.10 46.24
  A 1.09 1.09 0.0 0 0 30.01 47.33
  L 30.01 47.37
  A 1.09 1.09 0.0 0 0 31.10 48.46
  L 83.86 48.46
  A 1.09 1.09 0.0 0 0 84.95 47.37
  L 84.95 47.33"
/>
<path stroke="#f3f3f3" vector-effect="non-scaling-stroke" d="
  M 84.96 52.54
  A 1.07 1.07 0.0 0 0 83.89 51.47
  L 31.07 51.47
  A 1.07 1.07 0.0 0 0 30.00 52.54
  L 30.00 52.58
  A 1.07 1.07 0.0 0 0 31.07 53.65
  L 83.89 53.65
  A 1.07 1.07 0.0 0 0 84.96 52.58
  L 84.96 52.54"
/>
<path stroke="#f3f3f3" vector-effect="non-scaling-stroke" d="
  M 20.89 66.57
  L 3.53 66.21
  Q 1.54 66.17 1.38 68.15
  Q 1.34 68.59 1.47 69.05
  Q 1.86 70.39 3.24 70.37
  L 19.15 70.23"
/>
<path stroke="#9f9eab" vector-effect="non-scaling-stroke" d="
  M 19.15 70.23
  Q 19.40 74.27 20.83 77.85"
/>
<path stroke="#fddbda" vector-effect="non-scaling-stroke" d="
  M 20.83 77.85
  Q 21.17 78.25 21.09 79.01"
/>
<path stroke="#9797a0" vector-effect="non-scaling-stroke" d="
  M 21.09 79.01
  L 20.66 81.07"
/>
<path stroke="#f3f3f3" vector-effect="non-scaling-stroke" d="
  M 20.66 81.07
  Q 17.78 79.71 17.04 80.79
  Q 15.80 82.57 16.35 84.71
  Q 16.44 85.08 16.83 85.14
  Q 17.11 85.19 17.37 85.34
  Q 17.98 85.68 17.28 85.72
  C 14.91 85.85 11.30 84.87 11.04 88.37
  A 2.32 2.32 0.0 0 0 13.06 90.84
  Q 14.50 91.03 16.14 91.07
  C 18.94 91.15 19.61 88.56 18.69 86.35
  Q 18.50 85.90 18.88 85.59
  Q 19.38 85.19 20.23 85.46"
/>
<path stroke="#9797a0" vector-effect="non-scaling-stroke" d="
  M 20.23 85.46
  L 17.67 99.81
  Q 17.57 100.34 18.10 100.45
  L 19.85 100.84
  Q 20.40 100.96 20.57 100.42
  L 25.39 84.55
  Q 25.70 83.52 25.83 84.59
  Q 26.82 93.13 26.41 101.24
  Q 26.38 101.88 27.01 102.01
  L 28.48 102.32
  A 0.61 0.61 0.0 0 0 29.21 101.77
  L 30.52 86.82"
/>
<path stroke="#f3f3f3" vector-effect="non-scaling-stroke" d="
  M 30.52 86.82
  Q 30.89 86.34 30.89 86.34
  Q 31.87 85.73 31.54 86.84
  C 30.17 91.50 34.49 91.00 37.24 90.96
  A 2.53 2.53 0.0 0 0 39.72 88.63
  C 39.98 85.05 35.06 85.49 32.84 85.84
  Q 31.93 85.99 32.69 85.46
  L 33.49 84.89
  Q 33.92 84.58 34.14 84.10
  Q 34.90 82.39 33.23 80.79
  Q 32.15 79.76 30.71 80.25"
/>
<path stroke="#9797a0" vector-effect="non-scaling-stroke" d="
  M 30.71 80.25
  Q 30.43 78.09 29.55 77.73"
/>
<path stroke="#fddbda" vector-effect="non-scaling-stroke" d="
  M 29.55 77.73
  Q 29.35 77.24 29.55 76.43"
/>
<path stroke="#9f9eab" vector-effect="non-scaling-stroke" d="
  M 29.55 76.43
  Q 30.88 76.55 30.65 74.76
  Q 30.58 74.22 31.11 74.35
  Q 31.71 74.50 32.16 75.23"
/>
<path stroke="#80dfd3" vector-effect="non-scaling-stroke" d="
  M 32.16 75.23
  Q 29.91 78.85 33.23 79.75
  Q 34.28 80.03 36.77 79.82
  C 41.51 79.41 39.83 73.83 36.70 74.79"
/>
<path stroke="#9f9eab" vector-effect="non-scaling-stroke" d="
  M 36.70 74.79
  Q 33.12 73.71 31.74 70.43"
/>
<path stroke="#f3f3f3" vector-effect="non-scaling-stroke" d="
  M 31.74 70.43
  Q 51.34 70.27 70.75 70.50
  C 77.62 70.58 84.69 70.19 91.69 70.45
  Q 95.64 70.59 100.14 70.26
  Q 102.03 70.12 103.90 69.72
  Q 107.02 69.06 110.01 69.96
  Q 112.00 70.57 113.76 69.42
  Q 114.19 69.14 114.13 68.64
  Q 113.96 66.88 111.91 65.18"
/>
<path stroke="#9797a0" vector-effect="non-scaling-stroke" d="
  M 111.91 65.18
  L 113.44 64.41
  A 1.08 1.07 -58.6 0 0 112.95 62.37
  Q 109.60 62.41 109.33 66.12"
/>
<path stroke="#f3f3f3" vector-effect="non-scaling-stroke" d="
  M 109.33 66.12
  Q 109.41 66.27 109.33 66.40
  Q 109.16 66.67 108.84 66.62
  Q 104.58 65.90 100.25 66.20
  Q 99.64 66.25 99.24 65.27"
/>
<path stroke="#9797a0" vector-effect="non-scaling-stroke" d="
  M 99.24 65.27
  Q 98.92 63.64 97.50 63.75
  Q 94.92 63.97 93.83 66.22"
/>
<path stroke="#f3f3f3" vector-effect="non-scaling-stroke" d="
  M 93.83 66.22
  L 58.76 66.27
  A 0.93 0.92 -6.7 0 1 57.86 65.57
  Q 56.99 62.13 56.24 59.01
  Q 56.01 58.08 55.05 57.93"
/>
<path stroke="#80dfd3" vector-effect="non-scaling-stroke" d="
  M 55.05 57.93
  Q 55.20 57.48 55.17 57.11
  Q 55.11 56.59 54.59 56.59
  L 31.01 56.60
  A 0.94 0.93 -75.0 0 0 30.20 57.07
  Q 29.87 57.64 30.12 58.18
  A 1.04 1.03 -12.6 0 0 31.06 58.77
  L 54.21 58.79"
/>
<path stroke="#f3f3f3" vector-effect="non-scaling-stroke" d="
  M 54.21 58.79
  L 54.40 59.02
  Q 54.55 59.19 54.50 59.41
  L 53.11 65.58
  Q 52.99 66.11 52.44 66.12
  L 29.96 66.42"
/>
<path stroke="#9f9eab" vector-effect="non-scaling-stroke" d="
  M 29.96 66.42
  L 29.26 64.59
  A 0.86 0.71 -84.3 0 0 29.06 64.29
  L 27.84 63.20
  Q 27.45 62.85 27.66 62.36
  Q 28.37 60.69 28.49 58.86
  Q 28.65 56.52 26.34 56.16
  Q 23.30 55.69 22.83 59.08
  Q 22.76 59.61 22.24 59.71
  Q 20.55 60.01 20.60 61.64
  Q 20.61 62.13 21.57 63.86
  Q 22.53 65.60 20.89 66.57"
/>
<path stroke="#93929e" vector-effect="non-scaling-stroke" d="
  M 29.96 66.42
  L 31.74 70.43"
/>
<path stroke="#207e7e" vector-effect="non-scaling-stroke" d="
  M 36.70 74.79
  Q 36.53 75.09 36.72 75.43"
/>
<path stroke="#9d7a86" vector-effect="non-scaling-stroke" d="
  M 36.72 75.43
  Q 36.01 75.93 36.00 76.78"
/>
<path stroke="#207e7e" vector-effect="non-scaling-stroke" d="
  M 36.00 76.78
  L 32.16 75.23"
/>
<path stroke="#9d7a86" vector-effect="non-scaling-stroke" d="
  M 29.55 76.43
  L 23.30 76.58
  Q 22.64 76.59 22.75 75.94
  Q 23.07 73.99 22.76 72.13
  Q 22.63 71.34 22.36 72.10
  Q 21.68 73.98 22.20 76.06
  Q 22.35 76.66 22.07 77.12
  Q 21.74 77.66 20.83 77.85"
/>
<path stroke="#93929e" vector-effect="non-scaling-stroke" d="
  M 19.15 70.23
  L 20.89 66.57"
/>
<path stroke="#8b8a94" vector-effect="non-scaling-stroke" d="
  M 93.83 66.22
  Q 96.29 66.67 98.68 66.34
  Q 99.13 66.28 99.23 66.02
  Q 99.33 65.74 99.24 65.27"
/>
<path stroke="#8b8a94" vector-effect="non-scaling-stroke" d="
  M 109.33 66.12
  Q 111.03 65.75 111.91 65.18"
/>
<path stroke="#7dbbae" vector-effect="non-scaling-stroke" d="
  M 36.00 76.78
  Q 36.57 77.38 37.20 77.45
  Q 37.76 77.51 37.87 76.95
  Q 38.03 76.08 36.72 75.43"
/>
<path stroke="#95727b" vector-effect="non-scaling-stroke" d="
  M 29.55 77.73
  Q 26.44 77.75 23.45 77.73
  C 22.33 77.72 21.70 78.15 21.09 79.01"
/>
<path stroke="#73d3c6" vector-effect="non-scaling-stroke" d="
  M 55.05 57.93
  Q 54.87 58.70 54.21 58.79"
/>
<path stroke="#8b8a94" vector-effect="non-scaling-stroke" d="
  M 30.71 80.25
  Q 31.20 83.42 30.52 86.82"
/>
<path stroke="#8b8a94" vector-effect="non-scaling-stroke" d="
  M 20.23 85.46
  L 20.66 81.07"
/>
<path stroke="#f3f3f3" vector-effect="non-scaling-stroke" d="
  M 49.7425 77.1121
  A 2.45 2.45 0.0 0 0 47.3356 74.6197
  L 43.9762 74.5611
  A 2.45 2.45 0.0 0 0 41.4838 76.9679
  L 41.4775 77.3279
  A 2.45 2.45 0.0 0 0 43.8844 79.8203
  L 47.2438 79.8789
  A 2.45 2.45 0.0 0 0 49.7362 77.4721
  L 49.7425 77.1121"
/>
<path stroke="#f3f3f3" vector-effect="non-scaling-stroke" d="
  M 60.0899 77.2230
  A 4.40 2.81 0.3 0 0 55.7047 74.3900
  A 4.40 2.81 0.3 0 0 51.2901 77.1770
  A 4.40 2.81 0.3 0 0 55.6753 80.0100
  A 4.40 2.81 0.3 0 0 60.0899 77.2230"
/>
<path stroke="#f3f3f3" vector-effect="non-scaling-stroke" d="
  M 70.1600 77.2254
  A 4.40 2.82 0.2 0 0 65.7698 74.3900
  A 4.40 2.82 0.2 0 0 61.3600 77.1946
  A 4.40 2.82 0.2 0 0 65.7502 80.0300
  A 4.40 2.82 0.2 0 0 70.1600 77.2254"
/>
<path stroke="#f3f3f3" vector-effect="non-scaling-stroke" d="
  M 80.2399 77.2204
  A 4.36 2.83 0.4 0 0 75.8998 74.3601
  A 4.36 2.83 0.4 0 0 71.5201 77.1596
  A 4.36 2.83 0.4 0 0 75.8602 80.0199
  A 4.36 2.83 0.4 0 0 80.2399 77.2204"
/>
<path stroke="#f3f3f3" vector-effect="non-scaling-stroke" d="
  M 90.2360 76.9590
  A 2.45 2.45 0.0 0 0 87.7394 74.5565
  L 84.2000 74.6245
  A 2.45 2.45 0.0 0 0 81.7975 77.1210
  L 81.8040 77.4610
  A 2.45 2.45 0.0 0 0 84.3006 79.8635
  L 87.8400 79.7955
  A 2.45 2.45 0.0 0 0 90.2425 77.2990
  L 90.2360 76.9590"
/>
<path stroke="#f3f3f3" vector-effect="non-scaling-stroke" d="
  M 100.1406 77.0743
  A 2.43 2.43 0.0 0 0 97.7191 74.6359
  L 94.3591 74.6242
  A 2.43 2.43 0.0 0 0 91.9207 77.0457
  L 91.9194 77.4057
  A 2.43 2.43 0.0 0 0 94.3409 79.8441
  L 97.7009 79.8558
  A 2.43 2.43 0.0 0 0 100.1393 77.4343
  L 100.1406 77.0743"
/>
<path stroke="#f3f3f3" vector-effect="non-scaling-stroke" d="
  M 19.3010 77.0286
  A 2.20 2.20 0.0 0 0 17.1164 74.8133
  L 13.3165 74.7868
  A 2.20 2.20 0.0 0 0 11.1012 76.9714
  L 11.0990 77.2914
  A 2.20 2.20 0.0 0 0 13.2836 79.5067
  L 17.0835 79.5332
  A 2.20 2.20 0.0 0 0 19.2988 77.3486
  L 19.3010 77.0286"
/>
<path stroke="#f3f3f3" vector-effect="non-scaling-stroke" d="
  M 44.5997 82.8664
  A 4.39 2.81 -0.7 0 0 40.1757 80.1102
  A 4.39 2.81 -0.7 0 0 35.8203 82.9736
  A 4.39 2.81 -0.7 0 0 40.2443 85.7298
  A 4.39 2.81 -0.7 0 0 44.5997 82.8664"
/>
<path stroke="#f3f3f3" vector-effect="non-scaling-stroke" d="
  M 54.4787 82.7108
  A 2.44 2.44 0.0 0 0 52.0217 80.2878
  L 48.5218 80.3123
  A 2.44 2.44 0.0 0 0 46.0989 82.7693
  L 46.1013 83.1092
  A 2.44 2.44 0.0 0 0 48.5583 85.5322
  L 52.0582 85.5077
  A 2.44 2.44 0.0 0 0 54.4811 83.0507
  L 54.4787 82.7108"
/>
<path stroke="#f3f3f3" vector-effect="non-scaling-stroke" d="
  M 64.6177 82.6983
  A 2.45 2.45 0.0 0 0 62.1380 80.2784
  L 58.5782 80.3219
  A 2.45 2.45 0.0 0 0 56.1584 82.8017
  L 56.1623 83.1217
  A 2.45 2.45 0.0 0 0 58.6420 85.5416
  L 62.2018 85.4981
  A 2.45 2.45 0.0 0 0 64.6216 83.0183
  L 64.6177 82.6983"
/>
<path stroke="#f3f3f3" vector-effect="non-scaling-stroke" d="
  M 74.7294 82.7354
  A 2.45 2.45 0.0 0 0 72.2709 80.2939
  L 68.7909 80.3061
  A 2.45 2.45 0.0 0 0 66.3495 82.7646
  L 66.3506 83.0846
  A 2.45 2.45 0.0 0 0 68.8091 85.5261
  L 72.2891 85.5139
  A 2.45 2.45 0.0 0 0 74.7305 83.0554
  L 74.7294 82.7354"
/>
<path stroke="#f3f3f3" vector-effect="non-scaling-stroke" d="
  M 84.7441 82.6187
  A 2.45 2.45 0.0 0 0 82.2350 80.2293
  L 78.8360 80.3123
  A 2.45 2.45 0.0 0 0 76.4466 82.8215
  L 76.4559 83.2013
  A 2.45 2.45 0.0 0 0 78.9650 85.5907
  L 82.3640 85.5077
  A 2.45 2.45 0.0 0 0 84.7534 82.9985
  L 84.7441 82.6187"
/>
<path stroke="#f3f3f3" vector-effect="non-scaling-stroke" d="
  M 94.9694 82.7353
  A 2.44 2.44 0.0 0 0 92.5209 80.3038
  L 88.9609 80.3162
  A 2.44 2.44 0.0 0 0 86.5294 82.7647
  L 86.5306 83.1047
  A 2.44 2.44 0.0 0 0 88.9791 85.5362
  L 92.5391 85.5238
  A 2.44 2.44 0.0 0 0 94.9706 83.0753
  L 94.9694 82.7353"
/>
<path stroke="#f3f3f3" vector-effect="non-scaling-stroke" d="
  M 104.9475 82.7394
  A 2.48 2.48 0.0 0 0 102.4374 80.2899
  L 99.1176 80.3305
  A 2.48 2.48 0.0 0 0 96.6681 82.8406
  L 96.6725 83.2006
  A 2.48 2.48 0.0 0 0 99.1826 85.6501
  L 102.5024 85.6095
  A 2.48 2.48 0.0 0 0 104.9519 83.0994
  L 104.9475 82.7394"
/>
<path stroke="#f3f3f3" vector-effect="non-scaling-stroke" d="
  M 49.7423 88.2628
  A 2.45 2.45 0.0 0 0 47.3355 85.7704
  L 43.8960 85.7104
  A 2.45 2.45 0.0 0 0 41.4036 88.1172
  L 41.3977 88.4572
  A 2.45 2.45 0.0 0 0 43.8045 90.9496
  L 47.2440 91.0096
  A 2.45 2.45 0.0 0 0 49.7364 88.6028
  L 49.7423 88.2628"
/>
<path stroke="#f3f3f3" vector-effect="non-scaling-stroke" d="
  M 59.9397 88.1626
  A 2.44 2.44 0.0 0 0 57.4954 85.7269
  L 53.9354 85.7331
  A 2.44 2.44 0.0 0 0 51.4997 88.1774
  L 51.5003 88.5174
  A 2.44 2.44 0.0 0 0 53.9446 90.9531
  L 57.5046 90.9469
  A 2.44 2.44 0.0 0 0 59.9403 88.5026
  L 59.9397 88.1626"
/>
<path stroke="#f3f3f3" vector-effect="non-scaling-stroke" d="
  M 69.9897 88.1726
  A 2.45 2.45 0.0 0 0 67.5354 85.7269
  L 63.9954 85.7331
  A 2.45 2.45 0.0 0 0 61.5497 88.1874
  L 61.5503 88.5274
  A 2.45 2.45 0.0 0 0 64.0046 90.9731
  L 67.5446 90.9669
  A 2.45 2.45 0.0 0 0 69.9903 88.5126
  L 69.9897 88.1726"
/>
<path stroke="#f3f3f3" vector-effect="non-scaling-stroke" d="
  M 80.1325 88.2709
  A 2.45 2.45 0.0 0 0 77.7300 85.7743
  L 74.2106 85.7067
  A 2.45 2.45 0.0 0 0 71.7140 88.1092
  L 71.7075 88.4491
  A 2.45 2.45 0.0 0 0 74.1100 90.9457
  L 77.6294 91.0133
  A 2.45 2.45 0.0 0 0 80.1260 88.6108
  L 80.1325 88.2709"
/>
<path stroke="#f3f3f3" vector-effect="non-scaling-stroke" d="
  M 90.2326 88.2884
  A 2.44 2.44 0.0 0 0 87.8443 85.7978
  L 84.2851 85.7233
  A 2.44 2.44 0.0 0 0 81.7945 88.1117
  L 81.7874 88.4516
  A 2.44 2.44 0.0 0 0 84.1757 90.9422
  L 87.7349 91.0167
  A 2.44 2.44 0.0 0 0 90.2255 88.6283
  L 90.2326 88.2884"
/>
<path stroke="#f3f3f3" vector-effect="non-scaling-stroke" d="
  M 100.2317 88.2134
  A 2.45 2.45 0.0 0 0 97.8074 85.7378
  L 94.4276 85.7024
  A 2.45 2.45 0.0 0 0 91.9521 88.1267
  L 91.9483 88.4866
  A 2.45 2.45 0.0 0 0 94.3726 90.9622
  L 97.7524 90.9976
  A 2.45 2.45 0.0 0 0 100.2279 88.5733
  L 100.2317 88.2134"
/>
<path stroke="#f3f3f3" vector-effect="non-scaling-stroke" d="
  M 77.7297 95.8112
  A 2.62 2.62 0.0 0 0 75.1005 93.2004
  L 40.9207 93.3197
  A 2.62 2.62 0.0 0 0 38.3099 95.9488
  L 38.3103 96.0688
  A 2.62 2.62 0.0 0 0 40.9395 98.6796
  L 75.1193 98.5603
  A 2.62 2.62 0.0 0 0 77.7301 95.9312
  L 77.7297 95.8112"
/>
<path stroke="#9797a0" vector-effect="non-scaling-stroke" d="
  M 18.58 102.44
  A 0.45 0.45 0.0 0 0 17.83 102.30
  Q 17.03 103.16 17.00 104.23
  A 0.89 0.89 0.0 0 0 17.61 105.10
  Q 18.74 105.48 19.97 105.38
  Q 20.88 105.31 20.20 104.71
  Q 19.07 103.71 18.58 102.44"
/>
<path stroke="#9797a0" vector-effect="non-scaling-stroke" d="
  M 30.54 104.81
  C 29.36 104.40 29.05 103.25 27.68 103.02
  A 0.50 0.50 0.0 0 0 27.10 103.47
  L 26.98 104.82
  Q 26.93 105.41 27.52 105.45
  Q 28.90 105.55 30.50 105.25
  Q 31.35 105.10 30.54 104.81"
/>
<path stroke="#f3f3f3" vector-effect="non-scaling-stroke" d="
  M 50.0399 105.4656
  A 8.71 0.38 0.3 0 0 41.3320 105.0400
  A 8.71 0.38 0.3 0 0 32.6201 105.3744
  A 8.71 0.38 0.3 0 0 41.3280 105.8000
  A 8.71 0.38 0.3 0 0 50.0399 105.4656"
/>
<path stroke="#93929e" vector-effect="non-scaling-stroke" d="
  M 24.86 62.72
  Q 25.13 62.65 25.38 62.55
  Q 26.28 62.17 25.38 61.81
  L 24.32 61.39
  Q 23.66 61.12 23.32 61.75
  Q 23.00 62.33 23.08 63.01
  Q 23.16 63.73 23.76 63.31
  L 24.16 63.03
  Q 24.48 62.81 24.86 62.72"
/>
</g>
<path fill="#ffffff" d="
  M 0.00 0.00
  L 116.00 0.00
  L 116.00 119.00
  L 0.00 119.00
  L 0.00 0.00
  Z
  M 100.31 16.07
  Q 103.05 21.33 105.76 18.28
  Q 107.55 16.11 106.27 14.98
  Q 101.78 11.01 100.31 16.07
  Z
  M 97.60 38.23
  L 95.80 61.01
  A 1.46 1.46 0.0 0 0 97.50 62.56
  Q 98.09 62.47 98.69 62.58
  Q 99.43 62.73 99.46 61.97
  Q 99.62 58.73 99.68 55.53
  C 99.75 52.00 101.16 48.80 102.05 45.43
  Q 102.30 44.48 102.56 45.43
  C 103.36 48.45 103.42 51.80 105.41 54.34
  Q 107.36 56.83 108.52 59.74
  Q 108.81 60.47 109.59 60.40
  L 111.56 60.22
  Q 112.26 60.16 111.97 59.52
  Q 110.54 56.28 108.90 53.04
  C 107.99 51.25 107.94 49.34 107.73 47.41
  Q 107.60 46.16 107.79 43.09
  Q 107.97 39.92 107.12 36.56
  C 107.50 35.07 109.40 34.00 109.48 32.40
  Q 109.61 32.18 109.72 31.96
  Q 109.83 31.74 109.83 31.51
  Q 109.84 28.84 109.50 25.56
  C 109.17 22.47 107.06 21.21 104.61 20.12
  Q 103.85 19.78 103.07 20.07
  L 96.06 22.68
  Q 95.36 22.94 95.27 23.68
  L 94.99 25.98
  A 0.42 0.42 0.0 0 0 95.48 26.44
  L 99.48 25.75
  Q 100.03 25.66 100.03 26.21
  Q 100.08 31.41 99.38 33.26
  Q 98.43 35.74 97.60 38.23
  Z
  M 84.98 31.65
  A 1.10 1.10 0.0 0 0 83.88 30.55
  L 31.12 30.55
  A 1.10 1.10 0.0 0 0 30.02 31.65
  L 30.02 31.67
  A 1.10 1.10 0.0 0 0 31.12 32.77
  L 83.88 32.77
  A 1.10 1.10 0.0 0 0 84.98 31.67
  L 84.98 31.65
  Z
  M 84.93 36.64
  A 0.90 0.90 0.0 0 0 84.03 35.74
  L 31.01 35.74
  A 0.90 0.90 0.0 0 0 30.11 36.64
  L 30.11 36.98
  A 0.90 0.90 0.0 0 0 31.01 37.88
  L 84.03 37.88
  A 0.90 0.90 0.0 0 0 84.93 36.98
  L 84.93 36.64
  Z
  M 84.98 42.11
  A 1.08 1.08 0.0 0 0 83.90 41.03
  L 31.08 41.03
  A 1.08 1.08 0.0 0 0 30.00 42.11
  L 30.00 42.15
  A 1.08 1.08 0.0 0 0 31.08 43.23
  L 83.90 43.23
  A 1.08 1.08 0.0 0 0 84.98 42.15
  L 84.98 42.11
  Z
  M 84.95 47.33
  A 1.09 1.09 0.0 0 0 83.86 46.24
  L 31.10 46.24
  A 1.09 1.09 0.0 0 0 30.01 47.33
  L 30.01 47.37
  A 1.09 1.09 0.0 0 0 31.10 48.46
  L 83.86 48.46
  A 1.09 1.09 0.0 0 0 84.95 47.37
  L 84.95 47.33
  Z
  M 84.96 52.54
  A 1.07 1.07 0.0 0 0 83.89 51.47
  L 31.07 51.47
  A 1.07 1.07 0.0 0 0 30.00 52.54
  L 30.00 52.58
  A 1.07 1.07 0.0 0 0 31.07 53.65
  L 83.89 53.65
  A 1.07 1.07 0.0 0 0 84.96 52.58
  L 84.96 52.54
  Z
  M 20.89 66.57
  L 3.53 66.21
  Q 1.54 66.17 1.38 68.15
  Q 1.34 68.59 1.47 69.05
  Q 1.86 70.39 3.24 70.37
  L 19.15 70.23
  Q 19.40 74.27 20.83 77.85
  Q 21.17 78.25 21.09 79.01
  L 20.66 81.07
  Q 17.78 79.71 17.04 80.79
  Q 15.80 82.57 16.35 84.71
  Q 16.44 85.08 16.83 85.14
  Q 17.11 85.19 17.37 85.34
  Q 17.98 85.68 17.28 85.72
  C 14.91 85.85 11.30 84.87 11.04 88.37
  A 2.32 2.32 0.0 0 0 13.06 90.84
  Q 14.50 91.03 16.14 91.07
  C 18.94 91.15 19.61 88.56 18.69 86.35
  Q 18.50 85.90 18.88 85.59
  Q 19.38 85.19 20.23 85.46
  L 17.67 99.81
  Q 17.57 100.34 18.10 100.45
  L 19.85 100.84
  Q 20.40 100.96 20.57 100.42
  L 25.39 84.55
  Q 25.70 83.52 25.83 84.59
  Q 26.82 93.13 26.41 101.24
  Q 26.38 101.88 27.01 102.01
  L 28.48 102.32
  A 0.61 0.61 0.0 0 0 29.21 101.77
  L 30.52 86.82
  Q 30.89 86.34 30.89 86.34
  Q 31.87 85.73 31.54 86.84
  C 30.17 91.50 34.49 91.00 37.24 90.96
  A 2.53 2.53 0.0 0 0 39.72 88.63
  C 39.98 85.05 35.06 85.49 32.84 85.84
  Q 31.93 85.99 32.69 85.46
  L 33.49 84.89
  Q 33.92 84.58 34.14 84.10
  Q 34.90 82.39 33.23 80.79
  Q 32.15 79.76 30.71 80.25
  Q 30.43 78.09 29.55 77.73
  Q 29.35 77.24 29.55 76.43
  Q 30.88 76.55 30.65 74.76
  Q 30.58 74.22 31.11 74.35
  Q 31.71 74.50 32.16 75.23
  Q 29.91 78.85 33.23 79.75
  Q 34.28 80.03 36.77 79.82
  C 41.51 79.41 39.83 73.83 36.70 74.79
  Q 33.12 73.71 31.74 70.43
  Q 51.34 70.27 70.75 70.50
  C 77.62 70.58 84.69 70.19 91.69 70.45
  Q 95.64 70.59 100.14 70.26
  Q 102.03 70.12 103.90 69.72
  Q 107.02 69.06 110.01 69.96
  Q 112.00 70.57 113.76 69.42
  Q 114.19 69.14 114.13 68.64
  Q 113.96 66.88 111.91 65.18
  L 113.44 64.41
  A 1.08 1.07 -58.6 0 0 112.95 62.37
  Q 109.60 62.41 109.33 66.12
  Q 109.41 66.27 109.33 66.40
  Q 109.16 66.67 108.84 66.62
  Q 104.58 65.90 100.25 66.20
  Q 99.64 66.25 99.24 65.27
  Q 98.92 63.64 97.50 63.75
  Q 94.92 63.97 93.83 66.22
  L 58.76 66.27
  A 0.93 0.92 -6.7 0 1 57.86 65.57
  Q 56.99 62.13 56.24 59.01
  Q 56.01 58.08 55.05 57.93
  Q 55.20 57.48 55.17 57.11
  Q 55.11 56.59 54.59 56.59
  L 31.01 56.60
  A 0.94 0.93 -75.0 0 0 30.20 57.07
  Q 29.87 57.64 30.12 58.18
  A 1.04 1.03 -12.6 0 0 31.06 58.77
  L 54.21 58.79
  L 54.40 59.02
  Q 54.55 59.19 54.50 59.41
  L 53.11 65.58
  Q 52.99 66.11 52.44 66.12
  L 29.96 66.42
  L 29.26 64.59
  A 0.86 0.71 -84.3 0 0 29.06 64.29
  L 27.84 63.20
  Q 27.45 62.85 27.66 62.36
  Q 28.37 60.69 28.49 58.86
  Q 28.65 56.52 26.34 56.16
  Q 23.30 55.69 22.83 59.08
  Q 22.76 59.61 22.24 59.71
  Q 20.55 60.01 20.60 61.64
  Q 20.61 62.13 21.57 63.86
  Q 22.53 65.60 20.89 66.57
  Z
  M 49.7425 77.1121
  A 2.45 2.45 0.0 0 0 47.3356 74.6197
  L 43.9762 74.5611
  A 2.45 2.45 0.0 0 0 41.4838 76.9679
  L 41.4775 77.3279
  A 2.45 2.45 0.0 0 0 43.8844 79.8203
  L 47.2438 79.8789
  A 2.45 2.45 0.0 0 0 49.7362 77.4721
  L 49.7425 77.1121
  Z
  M 60.0899 77.2230
  A 4.40 2.81 0.3 0 0 55.7047 74.3900
  A 4.40 2.81 0.3 0 0 51.2901 77.1770
  A 4.40 2.81 0.3 0 0 55.6753 80.0100
  A 4.40 2.81 0.3 0 0 60.0899 77.2230
  Z
  M 70.1600 77.2254
  A 4.40 2.82 0.2 0 0 65.7698 74.3900
  A 4.40 2.82 0.2 0 0 61.3600 77.1946
  A 4.40 2.82 0.2 0 0 65.7502 80.0300
  A 4.40 2.82 0.2 0 0 70.1600 77.2254
  Z
  M 80.2399 77.2204
  A 4.36 2.83 0.4 0 0 75.8998 74.3601
  A 4.36 2.83 0.4 0 0 71.5201 77.1596
  A 4.36 2.83 0.4 0 0 75.8602 80.0199
  A 4.36 2.83 0.4 0 0 80.2399 77.2204
  Z
  M 90.2360 76.9590
  A 2.45 2.45 0.0 0 0 87.7394 74.5565
  L 84.2000 74.6245
  A 2.45 2.45 0.0 0 0 81.7975 77.1210
  L 81.8040 77.4610
  A 2.45 2.45 0.0 0 0 84.3006 79.8635
  L 87.8400 79.7955
  A 2.45 2.45 0.0 0 0 90.2425 77.2990
  L 90.2360 76.9590
  Z
  M 100.1406 77.0743
  A 2.43 2.43 0.0 0 0 97.7191 74.6359
  L 94.3591 74.6242
  A 2.43 2.43 0.0 0 0 91.9207 77.0457
  L 91.9194 77.4057
  A 2.43 2.43 0.0 0 0 94.3409 79.8441
  L 97.7009 79.8558
  A 2.43 2.43 0.0 0 0 100.1393 77.4343
  L 100.1406 77.0743
  Z
  M 19.3010 77.0286
  A 2.20 2.20 0.0 0 0 17.1164 74.8133
  L 13.3165 74.7868
  A 2.20 2.20 0.0 0 0 11.1012 76.9714
  L 11.0990 77.2914
  A 2.20 2.20 0.0 0 0 13.2836 79.5067
  L 17.0835 79.5332
  A 2.20 2.20 0.0 0 0 19.2988 77.3486
  L 19.3010 77.0286
  Z
  M 44.5997 82.8664
  A 4.39 2.81 -0.7 0 0 40.1757 80.1102
  A 4.39 2.81 -0.7 0 0 35.8203 82.9736
  A 4.39 2.81 -0.7 0 0 40.2443 85.7298
  A 4.39 2.81 -0.7 0 0 44.5997 82.8664
  Z
  M 54.4787 82.7108
  A 2.44 2.44 0.0 0 0 52.0217 80.2878
  L 48.5218 80.3123
  A 2.44 2.44 0.0 0 0 46.0989 82.7693
  L 46.1013 83.1092
  A 2.44 2.44 0.0 0 0 48.5583 85.5322
  L 52.0582 85.5077
  A 2.44 2.44 0.0 0 0 54.4811 83.0507
  L 54.4787 82.7108
  Z
  M 64.6177 82.6983
  A 2.45 2.45 0.0 0 0 62.1380 80.2784
  L 58.5782 80.3219
  A 2.45 2.45 0.0 0 0 56.1584 82.8017
  L 56.1623 83.1217
  A 2.45 2.45 0.0 0 0 58.6420 85.5416
  L 62.2018 85.4981
  A 2.45 2.45 0.0 0 0 64.6216 83.0183
  L 64.6177 82.6983
  Z
  M 74.7294 82.7354
  A 2.45 2.45 0.0 0 0 72.2709 80.2939
  L 68.7909 80.3061
  A 2.45 2.45 0.0 0 0 66.3495 82.7646
  L 66.3506 83.0846
  A 2.45 2.45 0.0 0 0 68.8091 85.5261
  L 72.2891 85.5139
  A 2.45 2.45 0.0 0 0 74.7305 83.0554
  L 74.7294 82.7354
  Z
  M 84.7441 82.6187
  A 2.45 2.45 0.0 0 0 82.2350 80.2293
  L 78.8360 80.3123
  A 2.45 2.45 0.0 0 0 76.4466 82.8215
  L 76.4559 83.2013
  A 2.45 2.45 0.0 0 0 78.9650 85.5907
  L 82.3640 85.5077
  A 2.45 2.45 0.0 0 0 84.7534 82.9985
  L 84.7441 82.6187
  Z
  M 94.9694 82.7353
  A 2.44 2.44 0.0 0 0 92.5209 80.3038
  L 88.9609 80.3162
  A 2.44 2.44 0.0 0 0 86.5294 82.7647
  L 86.5306 83.1047
  A 2.44 2.44 0.0 0 0 88.9791 85.5362
  L 92.5391 85.5238
  A 2.44 2.44 0.0 0 0 94.9706 83.0753
  L 94.9694 82.7353
  Z
  M 104.9475 82.7394
  A 2.48 2.48 0.0 0 0 102.4374 80.2899
  L 99.1176 80.3305
  A 2.48 2.48 0.0 0 0 96.6681 82.8406
  L 96.6725 83.2006
  A 2.48 2.48 0.0 0 0 99.1826 85.6501
  L 102.5024 85.6095
  A 2.48 2.48 0.0 0 0 104.9519 83.0994
  L 104.9475 82.7394
  Z
  M 49.7423 88.2628
  A 2.45 2.45 0.0 0 0 47.3355 85.7704
  L 43.8960 85.7104
  A 2.45 2.45 0.0 0 0 41.4036 88.1172
  L 41.3977 88.4572
  A 2.45 2.45 0.0 0 0 43.8045 90.9496
  L 47.2440 91.0096
  A 2.45 2.45 0.0 0 0 49.7364 88.6028
  L 49.7423 88.2628
  Z
  M 59.9397 88.1626
  A 2.44 2.44 0.0 0 0 57.4954 85.7269
  L 53.9354 85.7331
  A 2.44 2.44 0.0 0 0 51.4997 88.1774
  L 51.5003 88.5174
  A 2.44 2.44 0.0 0 0 53.9446 90.9531
  L 57.5046 90.9469
  A 2.44 2.44 0.0 0 0 59.9403 88.5026
  L 59.9397 88.1626
  Z
  M 69.9897 88.1726
  A 2.45 2.45 0.0 0 0 67.5354 85.7269
  L 63.9954 85.7331
  A 2.45 2.45 0.0 0 0 61.5497 88.1874
  L 61.5503 88.5274
  A 2.45 2.45 0.0 0 0 64.0046 90.9731
  L 67.5446 90.9669
  A 2.45 2.45 0.0 0 0 69.9903 88.5126
  L 69.9897 88.1726
  Z
  M 80.1325 88.2709
  A 2.45 2.45 0.0 0 0 77.7300 85.7743
  L 74.2106 85.7067
  A 2.45 2.45 0.0 0 0 71.7140 88.1092
  L 71.7075 88.4491
  A 2.45 2.45 0.0 0 0 74.1100 90.9457
  L 77.6294 91.0133
  A 2.45 2.45 0.0 0 0 80.1260 88.6108
  L 80.1325 88.2709
  Z
  M 90.2326 88.2884
  A 2.44 2.44 0.0 0 0 87.8443 85.7978
  L 84.2851 85.7233
  A 2.44 2.44 0.0 0 0 81.7945 88.1117
  L 81.7874 88.4516
  A 2.44 2.44 0.0 0 0 84.1757 90.9422
  L 87.7349 91.0167
  A 2.44 2.44 0.0 0 0 90.2255 88.6283
  L 90.2326 88.2884
  Z
  M 100.2317 88.2134
  A 2.45 2.45 0.0 0 0 97.8074 85.7378
  L 94.4276 85.7024
  A 2.45 2.45 0.0 0 0 91.9521 88.1267
  L 91.9483 88.4866
  A 2.45 2.45 0.0 0 0 94.3726 90.9622
  L 97.7524 90.9976
  A 2.45 2.45 0.0 0 0 100.2279 88.5733
  L 100.2317 88.2134
  Z
  M 77.7297 95.8112
  A 2.62 2.62 0.0 0 0 75.1005 93.2004
  L 40.9207 93.3197
  A 2.62 2.62 0.0 0 0 38.3099 95.9488
  L 38.3103 96.0688
  A 2.62 2.62 0.0 0 0 40.9395 98.6796
  L 75.1193 98.5603
  A 2.62 2.62 0.0 0 0 77.7301 95.9312
  L 77.7297 95.8112
  Z
  M 18.58 102.44
  A 0.45 0.45 0.0 0 0 17.83 102.30
  Q 17.03 103.16 17.00 104.23
  A 0.89 0.89 0.0 0 0 17.61 105.10
  Q 18.74 105.48 19.97 105.38
  Q 20.88 105.31 20.20 104.71
  Q 19.07 103.71 18.58 102.44
  Z
  M 30.54 104.81
  C 29.36 104.40 29.05 103.25 27.68 103.02
  A 0.50 0.50 0.0 0 0 27.10 103.47
  L 26.98 104.82
  Q 26.93 105.41 27.52 105.45
  Q 28.90 105.55 30.50 105.25
  Q 31.35 105.10 30.54 104.81
  Z
  M 50.0399 105.4656
  A 8.71 0.38 0.3 0 0 41.3320 105.0400
  A 8.71 0.38 0.3 0 0 32.6201 105.3744
  A 8.71 0.38 0.3 0 0 41.3280 105.8000
  A 8.71 0.38 0.3 0 0 50.0399 105.4656
  Z"
/>
<path fill="#2f2e41" d="
  M 105.76 18.28
  Q 104.40 14.22 100.31 16.07
  Q 101.78 11.01 106.27 14.98
  Q 107.55 16.11 105.76 18.28
  Z"
/>
<path fill="#fab6b5" d="
  M 105.76 18.28
  Q 103.05 21.33 100.31 16.07
  Q 104.40 14.22 105.76 18.28
  Z"
/>
<path fill="#00bfa6" d="
  M 109.48 32.40
  Q 108.27 31.66 107.28 31.79
  Q 106.78 31.86 106.51 32.29
  L 102.54 38.70
  Q 100.31 38.95 97.60 38.23
  Q 98.43 35.74 99.38 33.26
  Q 100.08 31.41 100.03 26.21
  Q 100.03 25.66 99.48 25.75
  L 95.48 26.44
  A 0.42 0.42 0.0 0 1 94.99 25.98
  L 95.27 23.68
  Q 95.36 22.94 96.06 22.68
  L 103.07 20.07
  Q 103.85 19.78 104.61 20.12
  C 107.06 21.21 109.17 22.47 109.50 25.56
  Q 109.84 28.84 109.83 31.51
  Q 109.83 31.74 109.72 31.96
  Q 109.61 32.18 109.48 32.40
  Z"
/>
<rect fill="#e6e6e6" x="30.02" y="30.55" width="54.96" height="2.22" rx="1.10"/>
<path fill="#fab6b5" d="
  M 109.48 32.40
  C 109.40 34.00 107.50 35.07 107.12 36.56
  L 104.62 39.54
  A 0.95 0.93 -74.5 0 1 104.07 39.86
  Q 102.92 40.09 102.54 38.70
  L 106.51 32.29
  Q 106.78 31.86 107.28 31.79
  Q 108.27 31.66 109.48 32.40
  Z"
/>
<rect fill="#e6e6e6" x="30.11" y="35.74" width="54.82" height="2.14" rx="0.90"/>
<path fill="#2f2e41" d="
  M 107.12 36.56
  Q 107.97 39.92 107.79 43.09
  Q 107.60 46.16 107.73 47.41
  C 107.94 49.34 107.99 51.25 108.90 53.04
  Q 110.54 56.28 111.97 59.52
  Q 112.26 60.16 111.56 60.22
  L 109.59 60.40
  Q 108.81 60.47 108.52 59.74
  Q 107.36 56.83 105.41 54.34
  C 103.42 51.80 103.36 48.45 102.56 45.43
  Q 102.30 44.48 102.05 45.43
  C 101.16 48.80 99.75 52.00 99.68 55.53
  Q 99.62 58.73 99.46 61.97
  Q 99.43 62.73 98.69 62.58
  Q 98.09 62.47 97.50 62.56
  A 1.46 1.46 0.0 0 1 95.80 61.01
  L 97.60 38.23
  Q 100.31 38.95 102.54 38.70
  Q 102.92 40.09 104.07 39.86
  A 0.95 0.93 -74.5 0 0 104.62 39.54
  L 107.12 36.56
  Z"
/>
<rect fill="#e6e6e6" x="30.00" y="41.03" width="54.98" height="2.20" rx="1.08"/>
<rect fill="#e6e6e6" x="30.01" y="46.24" width="54.94" height="2.22" rx="1.09"/>
<rect fill="#e6e6e6" x="30.00" y="51.47" width="54.96" height="2.18" rx="1.07"/>
<path fill="#3f3d56" d="
  M 29.96 66.42
  L 31.74 70.43
  Q 33.12 73.71 36.70 74.79
  Q 36.53 75.09 36.72 75.43
  Q 36.01 75.93 36.00 76.78
  L 32.16 75.23
  Q 31.71 74.50 31.11 74.35
  Q 30.58 74.22 30.65 74.76
  Q 30.88 76.55 29.55 76.43
  L 23.30 76.58
  Q 22.64 76.59 22.75 75.94
  Q 23.07 73.99 22.76 72.13
  Q 22.63 71.34 22.36 72.10
  Q 21.68 73.98 22.20 76.06
  Q 22.35 76.66 22.07 77.12
  Q 21.74 77.66 20.83 77.85
  Q 19.40 74.27 19.15 70.23
  L 20.89 66.57
  Q 22.53 65.60 21.57 63.86
  Q 20.61 62.13 20.60 61.64
  Q 20.55 60.01 22.24 59.71
  Q 22.76 59.61 22.83 59.08
  Q 23.30 55.69 26.34 56.16
  Q 28.65 56.52 28.49 58.86
  Q 28.37 60.69 27.66 62.36
  Q 27.45 62.85 27.84 63.20
  L 29.06 64.29
  A 0.86 0.71 -84.3 0 1 29.26 64.59
  L 29.96 66.42
  Z
  M 24.86 62.72
  Q 25.13 62.65 25.38 62.55
  Q 26.28 62.17 25.38 61.81
  L 24.32 61.39
  Q 23.66 61.12 23.32 61.75
  Q 23.00 62.33 23.08 63.01
  Q 23.16 63.73 23.76 63.31
  L 24.16 63.03
  Q 24.48 62.81 24.86 62.72
  Z"
/>
<path fill="#00bfa6" d="
  M 55.05 57.93
  Q 54.87 58.70 54.21 58.79
  L 31.06 58.77
  A 1.04 1.03 -12.6 0 1 30.12 58.18
  Q 29.87 57.64 30.20 57.07
  A 0.94 0.93 -75.0 0 1 31.01 56.60
  L 54.59 56.59
  Q 55.11 56.59 55.17 57.11
  Q 55.20 57.48 55.05 57.93
  Z"
/>
<path fill="#e6e6e6" d="
  M 55.05 57.93
  Q 56.01 58.08 56.24 59.01
  Q 56.99 62.13 57.86 65.57
  A 0.93 0.92 -6.7 0 0 58.76 66.27
  L 93.83 66.22
  Q 96.29 66.67 98.68 66.34
  Q 99.13 66.28 99.23 66.02
  Q 99.33 65.74 99.24 65.27
  Q 99.64 66.25 100.25 66.20
  Q 104.58 65.90 108.84 66.62
  Q 109.16 66.67 109.33 66.40
  Q 109.41 66.27 109.33 66.12
  Q 111.03 65.75 111.91 65.18
  Q 113.96 66.88 114.13 68.64
  Q 114.19 69.14 113.76 69.42
  Q 112.00 70.57 110.01 69.96
  Q 107.02 69.06 103.90 69.72
  Q 102.03 70.12 100.14 70.26
  Q 95.64 70.59 91.69 70.45
  C 84.69 70.19 77.62 70.58 70.75 70.50
  Q 51.34 70.27 31.74 70.43
  L 29.96 66.42
  L 52.44 66.12
  Q 52.99 66.11 53.11 65.58
  L 54.50 59.41
  Q 54.55 59.19 54.40 59.02
  L 54.21 58.79
  Q 54.87 58.70 55.05 57.93
  Z"
/>
<path fill="#e6e6e6" d="
  M 24.16 63.03
  L 23.76 63.31
  Q 23.16 63.73 23.08 63.01
  Q 23.00 62.33 23.32 61.75
  Q 23.66 61.12 24.32 61.39
  L 25.38 61.81
  Q 26.28 62.17 25.38 62.55
  Q 25.13 62.65 24.86 62.72
  Q 24.48 62.81 24.16 63.03
  Z"
/>
<path fill="#2f2e41" d="
  M 111.91 65.18
  Q 111.03 65.75 109.33 66.12
  Q 109.60 62.41 112.95 62.37
  A 1.08 1.07 -58.6 0 1 113.44 64.41
  L 111.91 65.18
  Z"
/>
<path fill="#2f2e41" d="
  M 99.24 65.27
  Q 99.33 65.74 99.23 66.02
  Q 99.13 66.28 98.68 66.34
  Q 96.29 66.67 93.83 66.22
  Q 94.92 63.97 97.50 63.75
  Q 98.92 63.64 99.24 65.27
  Z"
/>
<path fill="#e6e6e6" d="
  M 20.89 66.57
  L 19.15 70.23
  L 3.24 70.37
  Q 1.86 70.39 1.47 69.05
  Q 1.34 68.59 1.38 68.15
  Q 1.54 66.17 3.53 66.21
  L 20.89 66.57
  Z"
/>
<path fill="#fab6b5" d="
  M 29.55 76.43
  Q 29.35 77.24 29.55 77.73
  Q 26.44 77.75 23.45 77.73
  C 22.33 77.72 21.70 78.15 21.09 79.01
  Q 21.17 78.25 20.83 77.85
  Q 21.74 77.66 22.07 77.12
  Q 22.35 76.66 22.20 76.06
  Q 21.68 73.98 22.36 72.10
  Q 22.63 71.34 22.76 72.13
  Q 23.07 73.99 22.75 75.94
  Q 22.64 76.59 23.30 76.58
  L 29.55 76.43
  Z"
/>
<rect fill="#e6e6e6" x="-4.13" y="-2.63" transform="translate(45.61,77.22) rotate(1.0)" width="8.26" height="5.26" rx="2.45"/>
<ellipse fill="#e6e6e6" cx="0.00" cy="0.00" transform="translate(55.69,77.20) rotate(0.3)" rx="4.40" ry="2.81"/>
<ellipse fill="#e6e6e6" cx="0.00" cy="0.00" transform="translate(65.76,77.21) rotate(0.2)" rx="4.40" ry="2.82"/>
<ellipse fill="#e6e6e6" cx="0.00" cy="0.00" transform="translate(75.88,77.19) rotate(0.4)" rx="4.36" ry="2.83"/>
<rect fill="#e6e6e6" x="-4.22" y="-2.62" transform="translate(86.02,77.21) rotate(-1.1)" width="8.44" height="5.24" rx="2.45"/>
<rect fill="#e6e6e6" x="-4.11" y="-2.61" transform="translate(96.03,77.24) rotate(0.2)" width="8.22" height="5.22" rx="2.43"/>
<rect fill="#e6e6e6" x="-4.10" y="-2.36" transform="translate(15.20,77.16) rotate(0.4)" width="8.20" height="4.72" rx="2.20"/>
<path fill="#00bfa6" d="
  M 36.70 74.79
  C 39.83 73.83 41.51 79.41 36.77 79.82
  Q 34.28 80.03 33.23 79.75
  Q 29.91 78.85 32.16 75.23
  L 36.00 76.78
  Q 36.57 77.38 37.20 77.45
  Q 37.76 77.51 37.87 76.95
  Q 38.03 76.08 36.72 75.43
  Q 36.53 75.09 36.70 74.79
  Z"
/>
<path fill="#fab6b5" d="
  M 36.72 75.43
  Q 38.03 76.08 37.87 76.95
  Q 37.76 77.51 37.20 77.45
  Q 36.57 77.38 36.00 76.78
  Q 36.01 75.93 36.72 75.43
  Z"
/>
<path fill="#2f2e41" d="
  M 29.55 77.73
  Q 30.43 78.09 30.71 80.25
  Q 31.20 83.42 30.52 86.82
  L 29.21 101.77
  A 0.61 0.61 0.0 0 1 28.48 102.32
  L 27.01 102.01
  Q 26.38 101.88 26.41 101.24
  Q 26.82 93.13 25.83 84.59
  Q 25.70 83.52 25.39 84.55
  L 20.57 100.42
  Q 20.40 100.96 19.85 100.84
  L 18.10 100.45
  Q 17.57 100.34 17.67 99.81
  L 20.23 85.46
  L 20.66 81.07
  L 21.09 79.01
  C 21.70 78.15 22.33 77.72 23.45 77.73
  Q 26.44 77.75 29.55 77.73
  Z"
/>
<path fill="#e6e6e6" d="
  M 30.52 86.82
  Q 31.20 83.42 30.71 80.25
  Q 32.15 79.76 33.23 80.79
  Q 34.90 82.39 34.14 84.10
  Q 33.92 84.58 33.49 84.89
  L 32.69 85.46
  Q 31.93 85.99 32.84 85.84
  C 35.06 85.49 39.98 85.05 39.72 88.63
  A 2.53 2.53 0.0 0 1 37.24 90.96
  C 34.49 91.00 30.17 91.50 31.54 86.84
  Q 31.87 85.73 30.89 86.34
  Q 30.89 86.34 30.52 86.82
  Z"
/>
<path fill="#e6e6e6" d="
  M 20.66 81.07
  L 20.23 85.46
  Q 19.38 85.19 18.88 85.59
  Q 18.50 85.90 18.69 86.35
  C 19.61 88.56 18.94 91.15 16.14 91.07
  Q 14.50 91.03 13.06 90.84
  A 2.32 2.32 0.0 0 1 11.04 88.37
  C 11.30 84.87 14.91 85.85 17.28 85.72
  Q 17.98 85.68 17.37 85.34
  Q 17.11 85.19 16.83 85.14
  Q 16.44 85.08 16.35 84.71
  Q 15.80 82.57 17.04 80.79
  Q 17.78 79.71 20.66 81.07
  Z"
/>
<ellipse fill="#e6e6e6" cx="0.00" cy="0.00" transform="translate(40.21,82.92) rotate(-0.7)" rx="4.39" ry="2.81"/>
<rect fill="#e6e6e6" x="-4.19" y="-2.61" transform="translate(50.29,82.91) rotate(-0.4)" width="8.38" height="5.22" rx="2.44"/>
<rect fill="#e6e6e6" x="-4.23" y="-2.61" transform="translate(60.39,82.91) rotate(-0.7)" width="8.46" height="5.22" rx="2.45"/>
<rect fill="#e6e6e6" x="-4.19" y="-2.61" transform="translate(70.54,82.91) rotate(-0.2)" width="8.38" height="5.22" rx="2.45"/>
<rect fill="#e6e6e6" x="-4.15" y="-2.64" transform="translate(80.60,82.91) rotate(-1.4)" width="8.30" height="5.28" rx="2.45"/>
<rect fill="#e6e6e6" x="-4.22" y="-2.61" transform="translate(90.75,82.92) rotate(-0.2)" width="8.44" height="5.22" rx="2.44"/>
<rect fill="#e6e6e6" x="-4.14" y="-2.66" transform="translate(100.81,82.97) rotate(-0.7)" width="8.28" height="5.32" rx="2.48"/>
<rect fill="#e6e6e6" x="-4.17" y="-2.62" transform="translate(45.57,88.36) rotate(1.0)" width="8.34" height="5.24" rx="2.45"/>
<rect fill="#e6e6e6" x="-4.22" y="-2.61" transform="translate(55.72,88.34) rotate(-0.1)" width="8.44" height="5.22" rx="2.44"/>
<rect fill="#e6e6e6" x="-4.22" y="-2.62" transform="translate(65.77,88.35) rotate(-0.1)" width="8.44" height="5.24" rx="2.45"/>
<rect fill="#e6e6e6" x="-4.21" y="-2.62" transform="translate(75.92,88.36) rotate(1.1)" width="8.42" height="5.24" rx="2.45"/>
<rect fill="#e6e6e6" x="-4.22" y="-2.61" transform="translate(86.01,88.37) rotate(1.2)" width="8.44" height="5.22" rx="2.44"/>
<rect fill="#e6e6e6" x="-4.14" y="-2.63" transform="translate(96.09,88.35) rotate(0.6)" width="8.28" height="5.26" rx="2.45"/>
<rect fill="#e6e6e6" x="-19.71" y="-2.68" transform="translate(58.02,95.94) rotate(-0.2)" width="39.42" height="5.36" rx="2.62"/>
<path fill="#2f2e41" d="
  M 18.58 102.44
  Q 19.07 103.71 20.20 104.71
  Q 20.88 105.31 19.97 105.38
  Q 18.74 105.48 17.61 105.10
  A 0.89 0.89 0.0 0 1 17.00 104.23
  Q 17.03 103.16 17.83 102.30
  A 0.45 0.45 0.0 0 1 18.58 102.44
  Z"
/>
<path fill="#2f2e41" d="
  M 27.68 103.02
  C 29.05 103.25 29.36 104.40 30.54 104.81
  Q 31.35 105.10 30.50 105.25
  Q 28.90 105.55 27.52 105.45
  Q 26.93 105.41 26.98 104.82
  L 27.10 103.47
  A 0.50 0.50 0.0 0 1 27.68 103.02
  Z"
/>
<ellipse fill="#e6e6e6" cx="0.00" cy="0.00" transform="translate(41.33,105.42) rotate(0.3)" rx="8.71" ry="0.38"/>
</svg>
