<?xml version="1.0" encoding="UTF-8" standalone="no"?>
<!DOCTYPE svg PUBLIC "-//W3C//DTD SVG 1.1//EN" "http://www.w3.org/Graphics/SVG/1.1/DTD/svg11.dtd">
<svg xmlns="http://www.w3.org/2000/svg" version="1.1" viewBox="0.00 0.00 131.00 100.00">
<g stroke-width="2.00" fill="none" stroke-linecap="butt">
<path stroke="#f4f4f5" vector-effect="non-scaling-stroke" d="
  M 43.81 18.77
  Q 44.17 20.66 42.99 21.27"
/>
<path stroke="#d5d6db" vector-effect="non-scaling-stroke" d="
  M 42.99 21.27
  Q 42.08 21.35 41.50 22.23"
/>
<path stroke="#f4f4f5" vector-effect="non-scaling-stroke" d="
  M 41.50 22.23
  Q 39.10 21.98 36.66 22.82
  Q 34.95 23.41 34.78 24.76
  Q 33.95 31.40 32.94 38.23"
/>
<path stroke="#80dfd3" vector-effect="non-scaling-stroke" d="
  M 32.94 38.23
  Q 32.70 38.03 32.44 38.21
  A 0.52 0.52 0.0 0 0 32.27 38.82
  L 33.87 42.75"
/>
<path stroke="#fedada" vector-effect="non-scaling-stroke" d="
  M 33.87 42.75
  Q 33.45 46.49 35.06 50.27
  Q 35.25 50.73 35.16 51.22
  Q 34.75 53.32 35.78 55.26
  Q 36.19 56.04 38.14 55.61"
/>
<path stroke="#f4f4f5" vector-effect="non-scaling-stroke" d="
  M 38.14 55.61
  L 37.76 66.99"
/>
<path stroke="#9797a0" vector-effect="non-scaling-stroke" d="
  M 37.76 66.99
  Q 37.28 80.01 36.67 84.75
  Q 36.44 86.52 34.66 90.19"
/>
<path stroke="#d5d6db" vector-effect="non-scaling-stroke" d="
  M 34.66 90.19
  Q 34.45 90.57 34.26 90.64
  Q 33.96 90.75 33.76 90.51
  Q 33.52 90.23 33.16 90.23
  L 17.26 90.42
  Q 16.94 90.42 16.99 90.74
  L 17.05 91.17
  Q 17.07 91.34 17.24 91.34
  L 34.94 91.16"
/>
<path stroke="#9797a0" vector-effect="non-scaling-stroke" d="
  M 34.94 91.16
  Q 48.80 91.72 53.75 91.47
  Q 63.61 90.97 73.49 91.20
  C 74.88 91.23 76.21 91.73 77.50 91.74
  Q 84.28 91.78 95.81 91.30"
/>
<path stroke="#d5d6db" vector-effect="non-scaling-stroke" d="
  M 95.81 91.30
  Q 95.73 90.98 96.00 91.26
  Q 96.10 91.36 96.24 91.36
  L 113.50 91.38
  A 0.45 0.44 0.0 0 0 113.95 90.94
  L 113.95 90.69
  A 0.41 0.41 0.0 0 0 113.54 90.28
  L 96.95 90.40
  A 1.94 1.88 30.3 0 0 96.14 90.60
  L 95.78 90.79"
/>
<path stroke="#9797a0" vector-effect="non-scaling-stroke" d="
  M 95.78 90.79
  Q 93.79 87.11 93.50 84.00
  Q 93.17 80.41 92.53 67.77"
/>
<path stroke="#f4f4f5" vector-effect="non-scaling-stroke" d="
  M 92.53 67.77
  L 95.41 67.40
  Q 95.92 67.34 95.78 66.85
  L 92.99 56.51"
/>
<path stroke="#fedada" vector-effect="non-scaling-stroke" d="
  M 92.99 56.51
  Q 93.72 54.15 93.49 51.97"
/>
<path stroke="#f4f4f5" vector-effect="non-scaling-stroke" d="
  M 93.49 51.97
  Q 96.19 45.45 95.61 40.75
  Q 94.88 34.84 94.11 28.94
  Q 93.83 26.79 92.87 25.82
  Q 91.70 24.63 89.76 24.03"
/>
<path stroke="#9797a0" vector-effect="non-scaling-stroke" d="
  M 89.76 24.03
  Q 90.03 19.09 88.25 15.38
  C 87.56 13.92 86.22 13.02 84.83 12.33
  A 2.57 2.57 0.0 0 0 81.77 12.90
  L 78.40 16.61
  A 1.14 1.14 0.0 0 0 78.11 17.22
  C 77.78 19.49 79.00 20.33 77.27 22.54
  Q 76.94 22.96 77.27 23.38
  L 78.32 24.74
  Q 78.70 25.22 78.23 25.62
  L 77.45 26.28"
/>
<path stroke="#f4f4f5" vector-effect="non-scaling-stroke" d="
  M 77.45 26.28
  Q 77.10 26.29 76.76 26.50
  Q 76.32 26.76 76.22 27.27
  Q 73.96 39.18 73.13 51.29"
/>
<path stroke="#fedada" vector-effect="non-scaling-stroke" d="
  M 73.13 51.29
  Q 72.57 55.45 74.47 56.46"
/>
<path stroke="#f4f4f5" vector-effect="non-scaling-stroke" d="
  M 74.47 56.46
  L 71.60 66.90
  Q 71.42 67.54 72.09 67.55
  L 76.49 67.60"
/>
<path stroke="#9797a0" vector-effect="non-scaling-stroke" d="
  M 76.49 67.60
  L 80.48 85.93
  A 2.80 2.79 -11.2 0 1 78.24 89.27
  Q 76.84 89.52 75.62 90.26
  Q 74.99 90.64 74.26 90.64
  L 56.83 90.75
  Q 56.27 90.75 55.83 90.41
  Q 54.16 89.10 51.86 88.86
  Q 51.32 88.80 51.08 88.32
  Q 50.11 86.39 50.49 84.75
  Q 52.41 76.29 54.41 66.96"
/>
<path stroke="#f4f4f5" vector-effect="non-scaling-stroke" d="
  M 54.41 66.96
  Q 56.17 66.90 55.99 64.03
  Q 55.61 57.76 55.26 51.49
  Q 55.09 48.44 56.61 49.80"
/>
<path stroke="#fedada" vector-effect="non-scaling-stroke" d="
  M 56.61 49.80
  L 56.72 55.30
  A 1.63 1.63 0.0 0 0 59.32 56.57
  Q 60.72 55.53 60.03 53.31
  Q 59.36 51.10 60.13 49.62"
/>
<path stroke="#f4f4f5" vector-effect="non-scaling-stroke" d="
  M 60.13 49.62
  Q 58.84 37.77 57.07 25.83
  C 56.83 24.26 56.27 23.21 54.77 22.74
  Q 52.98 22.18 51.00 21.73"
/>
<path stroke="#d5d6db" vector-effect="non-scaling-stroke" d="
  M 51.00 21.73
  Q 50.76 21.33 50.27 21.16"
/>
<path stroke="#f4f4f5" vector-effect="non-scaling-stroke" d="
  M 50.27 21.16
  Q 49.75 20.77 49.04 20.56"
/>
<path stroke="#fedada" vector-effect="non-scaling-stroke" d="
  M 49.04 20.56
  Q 48.78 20.05 48.90 19.55
  Q 48.99 19.21 49.47 18.78
  Q 52.23 16.31 50.87 12.82"
/>
<path stroke="#9797a0" vector-effect="non-scaling-stroke" d="
  M 50.87 12.82
  Q 52.04 11.88 51.68 10.82
  C 50.86 8.39 45.96 7.55 44.04 8.83
  C 40.62 11.10 41.86 16.02 43.81 18.77"
/>
<path stroke="#96717b" vector-effect="non-scaling-stroke" d="
  M 50.87 12.82
  L 48.66 13.61
  Q 48.18 13.79 48.06 14.29
  Q 47.67 15.89 46.12 16.66
  Q 45.51 16.97 45.02 16.49
  L 44.79 16.26
  Q 44.16 15.64 44.13 16.52
  L 44.04 18.70"
/>
<path stroke="#8b8c96" vector-effect="non-scaling-stroke" d="
  M 44.04 18.70
  Q 43.93 18.73 43.81 18.77"
/>
<path stroke="#74d4c8" vector-effect="non-scaling-stroke" d="
  M 44.63 21.55
  L 46.73 26.33
  A 0.24 0.24 0.0 0 0 47.18 26.30
  L 48.49 21.50"
/>
<path stroke="#c9cbd1" vector-effect="non-scaling-stroke" d="
  M 50.27 21.16
  Q 49.96 21.18 50.03 21.49
  Q 50.47 23.59 51.02 25.77
  Q 51.08 26.01 51.32 25.94
  L 51.57 25.87
  Q 51.81 25.80 51.73 25.56
  Q 51.04 23.65 51.00 21.73"
/>
<path stroke="#f3cfcf" vector-effect="non-scaling-stroke" d="
  M 60.13 49.62
  L 56.61 49.80"
/>
<path stroke="#8b8c96" vector-effect="non-scaling-stroke" d="
  M 54.41 66.96
  Q 51.28 66.24 47.55 66.90"
/>
<path stroke="#f4f4f5" vector-effect="non-scaling-stroke" d="
  M 47.55 66.90
  Q 46.44 66.50 44.81 66.93"
/>
<path stroke="#8b8c96" vector-effect="non-scaling-stroke" d="
  M 44.81 66.93
  L 37.76 66.99"
/>
<path stroke="#f3cfcf" vector-effect="non-scaling-stroke" d="
  M 38.14 55.61
  Q 38.31 54.93 39.22 53.74"
/>
<path stroke="#74d4c8" vector-effect="non-scaling-stroke" d="
  M 39.22 53.74
  L 46.37 54.59
  Q 47.04 54.67 46.73 54.07
  L 38.83 38.87
  Q 38.57 38.37 38.02 38.36
  L 32.94 38.23"
/>
<path stroke="#c9cbd1" vector-effect="non-scaling-stroke" d="
  M 41.50 22.23
  L 41.16 25.72
  Q 41.12 26.21 40.83 26.61
  Q 38.94 29.28 39.76 32.60
  A 2.49 2.48 -13.6 0 0 42.74 34.42
  Q 44.05 34.12 43.98 32.61
  Q 43.87 30.19 43.87 27.98
  Q 43.87 27.35 43.31 27.07
  L 42.26 26.55
  Q 41.76 26.30 41.80 25.74
  Q 42.00 23.40 42.99 21.27"
/>
<path stroke="#f3cfcf" vector-effect="non-scaling-stroke" d="
  M 49.04 20.56
  Q 48.85 21.08 48.49 21.50"
/>
<path stroke="#7fbaad" vector-effect="non-scaling-stroke" d="
  M 48.49 21.50
  L 44.63 21.55"
/>
<path stroke="#f3cfcf" vector-effect="non-scaling-stroke" d="
  M 44.63 21.55
  Q 43.50 20.58 44.04 18.70"
/>
<path stroke="#7fbaad" vector-effect="non-scaling-stroke" d="
  M 39.22 53.74
  Q 38.62 53.82 38.29 52.98
  Q 36.27 47.81 33.87 42.75"
/>
<path stroke="#9797a0" vector-effect="non-scaling-stroke" d="
  M 83.07 67.94
  Q 83.69 76.32 84.15 84.13
  C 84.24 85.62 84.96 86.63 85.28 88.07
  Q 85.63 89.59 87.15 89.23
  Q 88.41 88.94 88.93 88.09
  Q 89.85 86.60 89.60 85.43
  Q 87.72 76.56 85.80 67.80"
/>
<path stroke="#6c6d7c" vector-effect="non-scaling-stroke" d="
  M 95.78 90.79
  Q 95.58 90.72 95.81 91.30"
/>
<path stroke="#6c6d7c" vector-effect="non-scaling-stroke" d="
  M 34.94 91.16
  Q 34.63 90.92 34.66 90.19"
/>
<path stroke="#9797a0" vector-effect="non-scaling-stroke" d="
  M 44.81 66.93
  Q 42.91 75.32 41.01 83.46
  Q 40.40 86.06 41.86 88.13
  A 2.04 2.04 0.0 0 0 45.42 87.69
  C 46.06 86.07 46.49 84.38 46.59 82.59
  Q 47.07 74.81 47.55 66.90"
/>
<path stroke="#f3cfcf" vector-effect="non-scaling-stroke" d="
  M 93.49 51.97
  Q 92.36 50.77 90.99 51.25
  Q 90.51 51.42 90.35 51.90
  Q 88.39 57.88 92.99 56.51"
/>
<path stroke="#8b8c96" vector-effect="non-scaling-stroke" d="
  M 92.53 67.77
  Q 89.22 67.06 85.80 67.80"
/>
<path stroke="#f4f4f5" vector-effect="non-scaling-stroke" d="
  M 85.80 67.80
  Q 85.05 67.23 83.07 67.94"
/>
<path stroke="#8b8c96" vector-effect="non-scaling-stroke" d="
  M 83.07 67.94
  Q 80.51 67.04 76.49 67.60"
/>
<path stroke="#f3cfcf" vector-effect="non-scaling-stroke" d="
  M 74.47 56.46
  Q 77.67 55.35 76.56 51.46
  Q 76.42 50.97 75.92 50.83
  Q 74.83 50.55 73.13 51.29"
/>
<path stroke="#74d4c8" vector-effect="non-scaling-stroke" d="
  M 82.44 24.29
  L 83.33 28.29
  Q 83.45 28.87 83.91 28.49
  Q 84.83 27.72 84.97 25.94"
/>
<path stroke="#8b8c96" vector-effect="non-scaling-stroke" d="
  M 89.76 24.03
  L 89.16 25.78
  Q 88.98 26.29 88.45 26.24
  L 84.97 25.94"
/>
<path stroke="#177774" vector-effect="non-scaling-stroke" d="
  M 84.97 25.94
  Q 84.74 25.01 85.05 24.38"
/>
<path stroke="#96717b" vector-effect="non-scaling-stroke" d="
  M 85.05 24.38
  C 86.75 21.40 88.18 17.99 86.24 15.25
  A 2.31 2.30 -49.0 0 0 82.32 15.53
  L 80.68 18.68
  Q 80.35 19.32 80.83 19.85
  Q 82.29 21.47 81.69 24.17"
/>
<path stroke="#8b8c96" vector-effect="non-scaling-stroke" d="
  M 81.69 24.17
  Q 81.28 27.72 78.07 27.28
  Q 77.66 27.22 77.53 26.99
  Q 77.39 26.72 77.45 26.28"
/>
<path stroke="#7fbaad" vector-effect="non-scaling-stroke" d="
  M 85.05 24.38
  Q 83.53 23.70 82.44 24.29"
/>
<path stroke="#f3cfcf" vector-effect="non-scaling-stroke" d="
  M 82.44 24.29
  Q 82.38 24.44 81.69 24.17"
/>
<path stroke="#8b8c96" vector-effect="non-scaling-stroke" d="
  M 52.04 27.63
  A 1.13 1.13 0.0 0 0 50.91 26.50
  A 1.13 1.13 0.0 0 0 49.78 27.63
  A 1.13 1.13 0.0 0 0 50.91 28.76
  A 1.13 1.13 0.0 0 0 52.04 27.63"
/>
<path stroke="#c9cbd1" vector-effect="non-scaling-stroke" d="
  M 40.74 33.15
  L 42.74 33.19
  A 0.42 0.42 0.0 0 0 43.17 32.78
  L 43.23 29.78
  A 2.68 1.27 -88.9 0 0 42.01 27.07
  L 41.71 27.07
  A 2.68 1.27 -88.9 0 0 40.39 29.72
  L 40.33 32.72
  A 0.42 0.42 0.0 0 0 40.74 33.15"
/>
<path stroke="#c9cbd1" vector-effect="non-scaling-stroke" d="
  M 77.4345 33.1699
  A 2.81 0.42 89.5 0 0 77.8300 30.3563
  A 2.81 0.42 89.5 0 0 77.3855 27.5501
  A 2.81 0.42 89.5 0 0 76.9900 30.3637
  A 2.81 0.42 89.5 0 0 77.4345 33.1699"
/>
<path stroke="#c9cbd1" vector-effect="non-scaling-stroke" d="
  M 81.5838 32.0464
  A 2.15 0.27 86.7 0 0 81.7296 29.8845
  A 2.15 0.27 86.7 0 0 81.3362 27.7536
  A 2.15 0.27 86.7 0 0 81.1904 29.9155
  A 2.15 0.27 86.7 0 0 81.5838 32.0464"
/>
<path stroke="#8b8c96" vector-effect="non-scaling-stroke" d="
  M 88.0721 30.8720
  A 1.20 1.13 96.6 0 0 89.3325 29.8099
  A 1.20 1.13 96.6 0 0 88.3479 28.4880
  A 1.20 1.13 96.6 0 0 87.0875 29.5501
  A 1.20 1.13 96.6 0 0 88.0721 30.8720"
/>
<path stroke="#8b8c96" vector-effect="non-scaling-stroke" d="
  M 80.3781 33.6954
  A 1.16 0.38 8.2 0 0 79.2842 33.1539
  A 1.16 0.38 8.2 0 0 78.0819 33.3646
  A 1.16 0.38 8.2 0 0 79.1758 33.9061
  A 1.16 0.38 8.2 0 0 80.3781 33.6954"
/>
</g>
<path fill="#ffffff" d="
  M 8.62 0.00
  L 122.24 0.00
  Q 129.44 1.59 131.00 8.62
  L 131.00 91.47
  Q 129.20 98.53 122.39 100.00
  L 8.76 100.00
  Q 1.55 98.42 0.00 91.38
  L 0.00 8.77
  Q 1.57 1.56 8.62 0.00
  Z
  M 43.81 18.77
  Q 44.17 20.66 42.99 21.27
  Q 42.08 21.35 41.50 22.23
  Q 39.10 21.98 36.66 22.82
  Q 34.95 23.41 34.78 24.76
  Q 33.95 31.40 32.94 38.23
  Q 32.70 38.03 32.44 38.21
  A 0.52 0.52 0.0 0 0 32.27 38.82
  L 33.87 42.75
  Q 33.45 46.49 35.06 50.27
  Q 35.25 50.73 35.16 51.22
  Q 34.75 53.32 35.78 55.26
  Q 36.19 56.04 38.14 55.61
  L 37.76 66.99
  Q 37.28 80.01 36.67 84.75
  Q 36.44 86.52 34.66 90.19
  Q 34.45 90.57 34.26 90.64
  Q 33.96 90.75 33.76 90.51
  Q 33.52 90.23 33.16 90.23
  L 17.26 90.42
  Q 16.94 90.42 16.99 90.74
  L 17.05 91.17
  Q 17.07 91.34 17.24 91.34
  L 34.94 91.16
  Q 48.80 91.72 53.75 91.47
  Q 63.61 90.97 73.49 91.20
  C 74.88 91.23 76.21 91.73 77.50 91.74
  Q 84.28 91.78 95.81 91.30
  Q 95.73 90.98 96.00 91.26
  Q 96.10 91.36 96.24 91.36
  L 113.50 91.38
  A 0.45 0.44 0.0 0 0 113.95 90.94
  L 113.95 90.69
  A 0.41 0.41 0.0 0 0 113.54 90.28
  L 96.95 90.40
  A 1.94 1.88 30.3 0 0 96.14 90.60
  L 95.78 90.79
  Q 93.79 87.11 93.50 84.00
  Q 93.17 80.41 92.53 67.77
  L 95.41 67.40
  Q 95.92 67.34 95.78 66.85
  L 92.99 56.51
  Q 93.72 54.15 93.49 51.97
  Q 96.19 45.45 95.61 40.75
  Q 94.88 34.84 94.11 28.94
  Q 93.83 26.79 92.87 25.82
  Q 91.70 24.63 89.76 24.03
  Q 90.03 19.09 88.25 15.38
  C 87.56 13.92 86.22 13.02 84.83 12.33
  A 2.57 2.57 0.0 0 0 81.77 12.90
  L 78.40 16.61
  A 1.14 1.14 0.0 0 0 78.11 17.22
  C 77.78 19.49 79.00 20.33 77.27 22.54
  Q 76.94 22.96 77.27 23.38
  L 78.32 24.74
  Q 78.70 25.22 78.23 25.62
  L 77.45 26.28
  Q 77.10 26.29 76.76 26.50
  Q 76.32 26.76 76.22 27.27
  Q 73.96 39.18 73.13 51.29
  Q 72.57 55.45 74.47 56.46
  L 71.60 66.90
  Q 71.42 67.54 72.09 67.55
  L 76.49 67.60
  L 80.48 85.93
  A 2.80 2.79 -11.2 0 1 78.24 89.27
  Q 76.84 89.52 75.62 90.26
  Q 74.99 90.64 74.26 90.64
  L 56.83 90.75
  Q 56.27 90.75 55.83 90.41
  Q 54.16 89.10 51.86 88.86
  Q 51.32 88.80 51.08 88.32
  Q 50.11 86.39 50.49 84.75
  Q 52.41 76.29 54.41 66.96
  Q 56.17 66.90 55.99 64.03
  Q 55.61 57.76 55.26 51.49
  Q 55.09 48.44 56.61 49.80
  L 56.72 55.30
  A 1.63 1.63 0.0 0 0 59.32 56.57
  Q 60.72 55.53 60.03 53.31
  Q 59.36 51.10 60.13 49.62
  Q 58.84 37.77 57.07 25.83
  C 56.83 24.26 56.27 23.21 54.77 22.74
  Q 52.98 22.18 51.00 21.73
  Q 50.76 21.33 50.27 21.16
  Q 49.75 20.77 49.04 20.56
  Q 48.78 20.05 48.90 19.55
  Q 48.99 19.21 49.47 18.78
  Q 52.23 16.31 50.87 12.82
  Q 52.04 11.88 51.68 10.82
  C 50.86 8.39 45.96 7.55 44.04 8.83
  C 40.62 11.10 41.86 16.02 43.81 18.77
  Z"
/>
<path fill="#2e2e41" d="
  M 50.87 12.82
  L 48.66 13.61
  Q 48.18 13.79 48.06 14.29
  Q 47.67 15.89 46.12 16.66
  Q 45.51 16.97 45.02 16.49
  L 44.79 16.26
  Q 44.16 15.64 44.13 16.52
  L 44.04 18.70
  Q 43.93 18.73 43.81 18.77
  C 41.86 16.02 40.62 11.10 44.04 8.83
  C 45.96 7.55 50.86 8.39 51.68 10.82
  Q 52.04 11.88 50.87 12.82
  Z"
/>
<path fill="#2e2e41" d="
  M 89.76 24.03
  L 89.16 25.78
  Q 88.98 26.29 88.45 26.24
  L 84.97 25.94
  Q 84.74 25.01 85.05 24.38
  C 86.75 21.40 88.18 17.99 86.24 15.25
  A 2.31 2.30 -49.0 0 0 82.32 15.53
  L 80.68 18.68
  Q 80.35 19.32 80.83 19.85
  Q 82.29 21.47 81.69 24.17
  Q 81.28 27.72 78.07 27.28
  Q 77.66 27.22 77.53 26.99
  Q 77.39 26.72 77.45 26.28
  L 78.23 25.62
  Q 78.70 25.22 78.32 24.74
  L 77.27 23.38
  Q 76.94 22.96 77.27 22.54
  C 79.00 20.33 77.78 19.49 78.11 17.22
  A 1.14 1.14 0.0 0 1 78.40 16.61
  L 81.77 12.90
  A 2.57 2.57 0.0 0 1 84.83 12.33
  C 86.22 13.02 87.56 13.92 88.25 15.38
  Q 90.03 19.09 89.76 24.03
  Z"
/>
<path fill="#fdb4b4" d="
  M 50.87 12.82
  Q 52.23 16.31 49.47 18.78
  Q 48.99 19.21 48.90 19.55
  Q 48.78 20.05 49.04 20.56
  Q 48.85 21.08 48.49 21.50
  L 44.63 21.55
  Q 43.50 20.58 44.04 18.70
  L 44.13 16.52
  Q 44.16 15.64 44.79 16.26
  L 45.02 16.49
  Q 45.51 16.97 46.12 16.66
  Q 47.67 15.89 48.06 14.29
  Q 48.18 13.79 48.66 13.61
  L 50.87 12.82
  Z"
/>
<path fill="#fdb4b4" d="
  M 85.05 24.38
  Q 83.53 23.70 82.44 24.29
  Q 82.38 24.44 81.69 24.17
  Q 82.29 21.47 80.83 19.85
  Q 80.35 19.32 80.68 18.68
  L 82.32 15.53
  A 2.31 2.30 -49.0 0 1 86.24 15.25
  C 88.18 17.99 86.75 21.40 85.05 24.38
  Z"
/>
<path fill="#e8e9ea" d="
  M 43.81 18.77
  Q 43.93 18.73 44.04 18.70
  Q 43.50 20.58 44.63 21.55
  L 46.73 26.33
  A 0.24 0.24 0.0 0 0 47.18 26.30
  L 48.49 21.50
  Q 48.85 21.08 49.04 20.56
  Q 49.75 20.77 50.27 21.16
  Q 49.96 21.18 50.03 21.49
  Q 50.47 23.59 51.02 25.77
  Q 51.08 26.01 51.32 25.94
  L 51.57 25.87
  Q 51.81 25.80 51.73 25.56
  Q 51.04 23.65 51.00 21.73
  Q 52.98 22.18 54.77 22.74
  C 56.27 23.21 56.83 24.26 57.07 25.83
  Q 58.84 37.77 60.13 49.62
  L 56.61 49.80
  Q 55.09 48.44 55.26 51.49
  Q 55.61 57.76 55.99 64.03
  Q 56.17 66.90 54.41 66.96
  Q 51.28 66.24 47.55 66.90
  Q 46.44 66.50 44.81 66.93
  L 37.76 66.99
  L 38.14 55.61
  Q 38.31 54.93 39.22 53.74
  L 46.37 54.59
  Q 47.04 54.67 46.73 54.07
  L 38.83 38.87
  Q 38.57 38.37 38.02 38.36
  L 32.94 38.23
  Q 33.95 31.40 34.78 24.76
  Q 34.95 23.41 36.66 22.82
  Q 39.10 21.98 41.50 22.23
  L 41.16 25.72
  Q 41.12 26.21 40.83 26.61
  Q 38.94 29.28 39.76 32.60
  A 2.49 2.48 -13.6 0 0 42.74 34.42
  Q 44.05 34.12 43.98 32.61
  Q 43.87 30.19 43.87 27.98
  Q 43.87 27.35 43.31 27.07
  L 42.26 26.55
  Q 41.76 26.30 41.80 25.74
  Q 42.00 23.40 42.99 21.27
  Q 44.17 20.66 43.81 18.77
  Z
  M 52.04 27.63
  A 1.13 1.13 0.0 0 0 50.91 26.50
  A 1.13 1.13 0.0 0 0 49.78 27.63
  A 1.13 1.13 0.0 0 0 50.91 28.76
  A 1.13 1.13 0.0 0 0 52.04 27.63
  Z"
/>
<path fill="#aaacb7" d="
  M 42.99 21.27
  Q 42.00 23.40 41.80 25.74
  Q 41.76 26.30 42.26 26.55
  L 43.31 27.07
  Q 43.87 27.35 43.87 27.98
  Q 43.87 30.19 43.98 32.61
  Q 44.05 34.12 42.74 34.42
  A 2.49 2.48 -13.6 0 1 39.76 32.60
  Q 38.94 29.28 40.83 26.61
  Q 41.12 26.21 41.16 25.72
  L 41.50 22.23
  Q 42.08 21.35 42.99 21.27
  Z
  M 40.74 33.15
  L 42.74 33.19
  A 0.42 0.42 0.0 0 0 43.17 32.78
  L 43.23 29.78
  A 2.68 1.27 -88.9 0 0 42.01 27.07
  L 41.71 27.07
  A 2.68 1.27 -88.9 0 0 40.39 29.72
  L 40.33 32.72
  A 0.42 0.42 0.0 0 0 40.74 33.15
  Z"
/>
<path fill="#aaacb7" d="
  M 50.27 21.16
  Q 50.76 21.33 51.00 21.73
  Q 51.04 23.65 51.73 25.56
  Q 51.81 25.80 51.57 25.87
  L 51.32 25.94
  Q 51.08 26.01 51.02 25.77
  Q 50.47 23.59 50.03 21.49
  Q 49.96 21.18 50.27 21.16
  Z"
/>
<path fill="#00bfa6" d="
  M 44.63 21.55
  L 48.49 21.50
  L 47.18 26.30
  A 0.24 0.24 0.0 0 1 46.73 26.33
  L 44.63 21.55
  Z"
/>
<path fill="#e8e9ea" d="
  M 89.76 24.03
  Q 91.70 24.63 92.87 25.82
  Q 93.83 26.79 94.11 28.94
  Q 94.88 34.84 95.61 40.75
  Q 96.19 45.45 93.49 51.97
  Q 92.36 50.77 90.99 51.25
  Q 90.51 51.42 90.35 51.90
  Q 88.39 57.88 92.99 56.51
  L 95.78 66.85
  Q 95.92 67.34 95.41 67.40
  L 92.53 67.77
  Q 89.22 67.06 85.80 67.80
  Q 85.05 67.23 83.07 67.94
  Q 80.51 67.04 76.49 67.60
  L 72.09 67.55
  Q 71.42 67.54 71.60 66.90
  L 74.47 56.46
  Q 77.67 55.35 76.56 51.46
  Q 76.42 50.97 75.92 50.83
  Q 74.83 50.55 73.13 51.29
  Q 73.96 39.18 76.22 27.27
  Q 76.32 26.76 76.76 26.50
  Q 77.10 26.29 77.45 26.28
  Q 77.39 26.72 77.53 26.99
  Q 77.66 27.22 78.07 27.28
  Q 81.28 27.72 81.69 24.17
  Q 82.38 24.44 82.44 24.29
  L 83.33 28.29
  Q 83.45 28.87 83.91 28.49
  Q 84.83 27.72 84.97 25.94
  L 88.45 26.24
  Q 88.98 26.29 89.16 25.78
  L 89.76 24.03
  Z
  M 77.4345 33.1699
  A 2.81 0.42 89.5 0 0 77.8300 30.3563
  A 2.81 0.42 89.5 0 0 77.3855 27.5501
  A 2.81 0.42 89.5 0 0 76.9900 30.3637
  A 2.81 0.42 89.5 0 0 77.4345 33.1699
  Z
  M 81.5838 32.0464
  A 2.15 0.27 86.7 0 0 81.7296 29.8845
  A 2.15 0.27 86.7 0 0 81.3362 27.7536
  A 2.15 0.27 86.7 0 0 81.1904 29.9155
  A 2.15 0.27 86.7 0 0 81.5838 32.0464
  Z
  M 88.0721 30.8720
  A 1.20 1.13 96.6 0 0 89.3325 29.8099
  A 1.20 1.13 96.6 0 0 88.3479 28.4880
  A 1.20 1.13 96.6 0 0 87.0875 29.5501
  A 1.20 1.13 96.6 0 0 88.0721 30.8720
  Z
  M 80.3781 33.6954
  A 1.16 0.38 8.2 0 0 79.2842 33.1539
  A 1.16 0.38 8.2 0 0 78.0819 33.3646
  A 1.16 0.38 8.2 0 0 79.1758 33.9061
  A 1.16 0.38 8.2 0 0 80.3781 33.6954
  Z"
/>
<path fill="#00bfa6" d="
  M 85.05 24.38
  Q 84.74 25.01 84.97 25.94
  Q 84.83 27.72 83.91 28.49
  Q 83.45 28.87 83.33 28.29
  L 82.44 24.29
  Q 83.53 23.70 85.05 24.38
  Z"
/>
<circle fill="#2e2e41" cx="50.91" cy="27.63" r="1.13"/>
<path fill="#e8e9ea" d="
  M 40.74 33.15
  A 0.42 0.42 0.0 0 1 40.33 32.72
  L 40.39 29.72
  A 2.68 1.27 -88.9 0 1 41.71 27.07
  L 42.01 27.07
  A 2.68 1.27 -88.9 0 1 43.23 29.78
  L 43.17 32.78
  A 0.42 0.42 0.0 0 1 42.74 33.19
  L 40.74 33.15
  Z"
/>
<ellipse fill="#aaacb7" cx="0.00" cy="0.00" transform="translate(77.41,30.36) rotate(89.5)" rx="2.81" ry="0.42"/>
<ellipse fill="#aaacb7" cx="0.00" cy="0.00" transform="translate(81.46,29.90) rotate(86.7)" rx="2.15" ry="0.27"/>
<ellipse fill="#2e2e41" cx="0.00" cy="0.00" transform="translate(88.21,29.68) rotate(96.6)" rx="1.20" ry="1.13"/>
<ellipse fill="#2e2e41" cx="0.00" cy="0.00" transform="translate(79.23,33.53) rotate(8.2)" rx="1.16" ry="0.38"/>
<path fill="#00bfa6" d="
  M 32.94 38.23
  L 38.02 38.36
  Q 38.57 38.37 38.83 38.87
  L 46.73 54.07
  Q 47.04 54.67 46.37 54.59
  L 39.22 53.74
  Q 38.62 53.82 38.29 52.98
  Q 36.27 47.81 33.87 42.75
  L 32.27 38.82
  A 0.52 0.52 0.0 0 1 32.44 38.21
  Q 32.70 38.03 32.94 38.23
  Z"
/>
<path fill="#fdb4b4" d="
  M 33.87 42.75
  Q 36.27 47.81 38.29 52.98
  Q 38.62 53.82 39.22 53.74
  Q 38.31 54.93 38.14 55.61
  Q 36.19 56.04 35.78 55.26
  Q 34.75 53.32 35.16 51.22
  Q 35.25 50.73 35.06 50.27
  Q 33.45 46.49 33.87 42.75
  Z"
/>
<path fill="#fdb4b4" d="
  M 60.13 49.62
  Q 59.36 51.10 60.03 53.31
  Q 60.72 55.53 59.32 56.57
  A 1.63 1.63 0.0 0 1 56.72 55.30
  L 56.61 49.80
  L 60.13 49.62
  Z"
/>
<path fill="#fdb4b4" d="
  M 74.47 56.46
  Q 72.57 55.45 73.13 51.29
  Q 74.83 50.55 75.92 50.83
  Q 76.42 50.97 76.56 51.46
  Q 77.67 55.35 74.47 56.46
  Z"
/>
<path fill="#fdb4b4" d="
  M 93.49 51.97
  Q 93.72 54.15 92.99 56.51
  Q 88.39 57.88 90.35 51.90
  Q 90.51 51.42 90.99 51.25
  Q 92.36 50.77 93.49 51.97
  Z"
/>
<path fill="#2e2e41" d="
  M 54.41 66.96
  Q 52.41 76.29 50.49 84.75
  Q 50.11 86.39 51.08 88.32
  Q 51.32 88.80 51.86 88.86
  Q 54.16 89.10 55.83 90.41
  Q 56.27 90.75 56.83 90.75
  L 74.26 90.64
  Q 74.99 90.64 75.62 90.26
  Q 76.84 89.52 78.24 89.27
  A 2.80 2.79 -11.2 0 0 80.48 85.93
  L 76.49 67.60
  Q 80.51 67.04 83.07 67.94
  Q 83.69 76.32 84.15 84.13
  C 84.24 85.62 84.96 86.63 85.28 88.07
  Q 85.63 89.59 87.15 89.23
  Q 88.41 88.94 88.93 88.09
  Q 89.85 86.60 89.60 85.43
  Q 87.72 76.56 85.80 67.80
  Q 89.22 67.06 92.53 67.77
  Q 93.17 80.41 93.50 84.00
  Q 93.79 87.11 95.78 90.79
  Q 95.58 90.72 95.81 91.30
  Q 84.28 91.78 77.50 91.74
  C 76.21 91.73 74.88 91.23 73.49 91.20
  Q 63.61 90.97 53.75 91.47
  Q 48.80 91.72 34.94 91.16
  Q 34.63 90.92 34.66 90.19
  Q 36.44 86.52 36.67 84.75
  Q 37.28 80.01 37.76 66.99
  L 44.81 66.93
  Q 42.91 75.32 41.01 83.46
  Q 40.40 86.06 41.86 88.13
  A 2.04 2.04 0.0 0 0 45.42 87.69
  C 46.06 86.07 46.49 84.38 46.59 82.59
  Q 47.07 74.81 47.55 66.90
  Q 51.28 66.24 54.41 66.96
  Z"
/>
<path fill="#ffffff" d="
  M 47.55 66.90
  Q 47.07 74.81 46.59 82.59
  C 46.49 84.38 46.06 86.07 45.42 87.69
  A 2.04 2.04 0.0 0 1 41.86 88.13
  Q 40.40 86.06 41.01 83.46
  Q 42.91 75.32 44.81 66.93
  Q 46.44 66.50 47.55 66.90
  Z"
/>
<path fill="#ffffff" d="
  M 85.80 67.80
  Q 87.72 76.56 89.60 85.43
  Q 89.85 86.60 88.93 88.09
  Q 88.41 88.94 87.15 89.23
  Q 85.63 89.59 85.28 88.07
  C 84.96 86.63 84.24 85.62 84.15 84.13
  Q 83.69 76.32 83.07 67.94
  Q 85.05 67.23 85.80 67.80
  Z"
/>
<path fill="#aaacb7" d="
  M 34.66 90.19
  Q 34.63 90.92 34.94 91.16
  L 17.24 91.34
  Q 17.07 91.34 17.05 91.17
  L 16.99 90.74
  Q 16.94 90.42 17.26 90.42
  L 33.16 90.23
  Q 33.52 90.23 33.76 90.51
  Q 33.96 90.75 34.26 90.64
  Q 34.45 90.57 34.66 90.19
  Z"
/>
<path fill="#aaacb7" d="
  M 95.81 91.30
  Q 95.58 90.72 95.78 90.79
  L 96.14 90.60
  A 1.94 1.88 30.3 0 1 96.95 90.40
  L 113.54 90.28
  A 0.41 0.41 0.0 0 1 113.95 90.69
  L 113.95 90.94
  A 0.45 0.44 0.0 0 1 113.50 91.38
  L 96.24 91.36
  Q 96.10 91.36 96.00 91.26
  Q 95.73 90.98 95.81 91.30
  Z"
/>
</svg>
