<?xml version="1.0" encoding="UTF-8" standalone="no"?>
<!DOCTYPE svg PUBLIC "-//W3C//DTD SVG 1.1//EN" "http://www.w3.org/Graphics/SVG/1.1/DTD/svg11.dtd">
<svg xmlns="http://www.w3.org/2000/svg" version="1.1" viewBox="0.00 0.00 125.00 115.00">
<g stroke-width="2.00" fill="none" stroke-linecap="butt">
<path stroke="#f9f9f9" vector-effect="non-scaling-stroke" d="
  M 60.33 29.70
  Q 58.56 32.20 54.99 33.20
  Q 50.73 34.40 50.16 34.71
  C 45.85 37.05 42.14 41.75 40.09 45.95
  Q 39.86 46.42 40.12 46.87
  L 43.93 53.55"
/>
<path stroke="#80dfd3" vector-effect="non-scaling-stroke" d="
  M 43.93 53.55
  Q 40.72 58.50 41.91 63.51"
/>
<path stroke="#f9f9f9" vector-effect="non-scaling-stroke" d="
  M 41.91 63.51
  Q 40.75 64.31 40.99 67.62
  Q 41.02 68.08 40.56 68.13
  Q 40.36 68.15 40.19 68.03
  Q 39.84 67.80 39.77 67.38
  Q 39.03 63.29 37.22 60.19
  C 34.94 56.29 32.40 52.10 32.40 47.30
  Q 32.40 46.55 31.86 47.07
  Q 28.03 50.86 26.22 56.16
  Q 26.05 56.63 26.38 57.00
  L 30.31 61.48
  Q 30.91 62.17 30.04 61.90
  Q 27.99 61.29 26.19 60.32
  Q 25.23 59.80 25.09 60.88
  Q 24.35 66.98 26.11 72.14
  Q 26.44 73.11 25.59 72.53
  C 22.22 70.26 18.82 68.59 16.76 64.97
  Q 16.09 63.77 15.75 65.10
  Q 14.45 70.35 15.39 75.21
  A 0.89 0.87 -86.8 0 0 15.97 75.88
  L 20.74 77.52
  Q 24.08 78.67 20.55 78.72
  Q 18.99 78.75 17.17 78.95
  Q 16.22 79.05 16.61 79.92
  Q 21.86 91.60 32.84 94.44
  A 0.21 0.21 0.0 0 1 32.93 94.79
  Q 32.75 94.98 32.48 94.98
  Q 18.48 95.08 5.58 95.18
  Q 5.12 95.18 5.12 95.64
  L 5.12 95.94
  Q 5.12 96.22 5.40 96.22
  L 41.09 96.19"
/>
<path stroke="#9797a0" vector-effect="non-scaling-stroke" d="
  M 41.09 96.19
  Q 40.76 98.74 40.50 101.20
  Q 40.44 101.76 40.66 102.22
  Q 40.96 102.85 41.65 102.80
  Q 42.18 102.76 42.48 102.33
  Q 44.96 98.85 47.93 98.41"
/>
<path stroke="#cfb0b5" vector-effect="non-scaling-stroke" d="
  M 47.93 98.41
  Q 49.82 98.54 51.28 99.32"
/>
<path stroke="#9797a0" vector-effect="non-scaling-stroke" d="
  M 51.28 99.32
  Q 62.14 102.60 73.50 102.30
  Q 74.92 102.26 76.77 101.42
  Q 77.18 101.23 77.61 101.38
  Q 80.03 102.21 83.01 102.75
  Q 84.09 102.94 84.40 101.94
  A 1.17 1.13 -58.2 0 0 84.16 100.85
  L 81.08 97.39
  Q 80.56 96.81 80.91 96.12
  Q 81.35 95.27 80.75 94.47
  Q 80.30 93.87 81.05 93.75
  Q 81.44 93.69 81.63 93.34
  Q 86.83 83.54 88.80 72.77
  Q 89.01 71.62 88.58 69.20"
/>
<path stroke="#80dfd3" vector-effect="non-scaling-stroke" d="
  M 88.58 69.20
  Q 88.66 68.85 89.13 68.87
  Q 95.47 69.14 102.77 70.15
  Q 108.32 70.92 112.99 69.13
  C 118.91 66.87 122.44 60.43 117.33 55.05
  Q 113.79 51.33 108.30 50.14
  Q 96.36 47.58 86.16 46.72"
/>
<path stroke="#f9f9f9" vector-effect="non-scaling-stroke" d="
  M 86.16 46.72
  Q 88.29 42.73 88.25 37.16"
/>
<path stroke="#cfb0b5" vector-effect="non-scaling-stroke" d="
  M 88.25 37.16
  Q 90.27 36.07 91.02 34.45"
/>
<path stroke="#9f9eab" vector-effect="non-scaling-stroke" d="
  M 91.02 34.45
  C 95.41 33.91 98.59 30.36 97.64 25.98
  C 96.28 19.65 88.04 18.34 84.71 24.00
  Q 81.92 28.75 86.71 33.21"
/>
<path stroke="#cfb0b5" vector-effect="non-scaling-stroke" d="
  M 86.71 33.21
  L 85.50 36.22"
/>
<path stroke="#f9f9f9" vector-effect="non-scaling-stroke" d="
  M 85.50 36.22
  Q 83.55 37.50 82.43 39.37
  Q 80.85 42.00 80.54 42.38
  Q 79.34 43.81 78.09 45.00
  Q 77.28 45.76 76.59 44.90
  Q 73.90 41.55 71.51 38.34
  C 70.58 37.09 69.04 37.12 67.99 35.95
  Q 67.40 35.30 66.95 34.60
  Q 66.69 34.19 66.65 33.71
  L 66.43 30.94"
/>
<path stroke="#9797a0" vector-effect="non-scaling-stroke" d="
  M 66.43 30.94
  Q 70.38 31.40 73.94 30.36
  A 1.52 1.52 0.0 0 0 75.03 29.00
  L 75.38 24.22
  Q 75.42 23.60 76.04 23.54
  L 77.03 23.43
  A 0.73 0.72 87.3 0 0 77.67 22.72
  C 77.68 20.01 77.47 16.31 74.20 15.92
  Q 73.71 15.86 73.38 15.50
  Q 69.67 11.41 63.70 12.35
  C 59.26 13.04 56.75 21.02 55.64 24.99
  Q 55.09 26.94 56.65 28.19
  C 57.87 29.17 58.85 29.13 60.33 29.70"
/>
<path stroke="#91909a" vector-effect="non-scaling-stroke" d="
  M 66.43 30.94
  L 60.33 29.70"
/>
<path stroke="#c8aaae" vector-effect="non-scaling-stroke" d="
  M 85.50 36.22
  Q 87.12 38.03 88.25 37.16"
/>
<path stroke="#79d9cc" vector-effect="non-scaling-stroke" d="
  M 86.16 46.72
  Q 70.57 45.19 58.00 46.31
  Q 54.72 46.60 49.94 48.62
  Q 49.53 48.79 49.74 49.18
  L 51.32 52.13
  Q 51.57 52.58 51.96 52.92
  Q 54.16 54.85 54.67 57.65"
/>
<path stroke="#c8aaae" vector-effect="non-scaling-stroke" d="
  M 54.67 57.65
  Q 53.28 58.60 52.63 59.74"
/>
<path stroke="#79d9cc" vector-effect="non-scaling-stroke" d="
  M 52.63 59.74
  Q 47.33 57.94 43.93 53.55"
/>
<path stroke="#187774" vector-effect="non-scaling-stroke" d="
  M 88.58 69.20
  Q 88.26 69.06 88.00 69.07
  Q 75.91 69.38 63.90 71.78"
/>
<path stroke="#79d9cc" vector-effect="non-scaling-stroke" d="
  M 63.90 71.78
  Q 61.08 71.63 59.93 74.13"
/>
<path stroke="#187774" vector-effect="non-scaling-stroke" d="
  M 59.93 74.13
  L 57.88 76.62
  A 1.58 1.57 -41.8 0 1 55.34 76.48
  Q 53.21 73.17 50.01 71.23"
/>
<path stroke="#79d9cc" vector-effect="non-scaling-stroke" d="
  M 50.01 71.23
  Q 44.73 67.75 41.91 63.51"
/>
<path stroke="#4f9088" vector-effect="non-scaling-stroke" d="
  M 52.63 59.74
  Q 52.51 60.00 52.84 60.24
  Q 53.24 60.54 53.32 61.03
  Q 53.65 63.28 55.75 63.28
  Q 56.27 63.28 56.64 62.91
  L 58.24 61.27"
/>
<path stroke="#80dfd3" vector-effect="non-scaling-stroke" d="
  M 58.24 61.27
  Q 58.95 61.74 59.25 61.74
  Q 82.43 61.75 105.46 61.74
  Q 106.46 61.74 106.61 60.75
  Q 106.65 60.44 106.49 60.15
  A 0.82 0.82 0.0 0 0 105.76 59.73
  L 58.24 60.12"
/>
<path stroke="#4f9088" vector-effect="non-scaling-stroke" d="
  M 58.24 60.12
  Q 57.78 60.18 57.44 60.10
  Q 57.13 60.04 56.83 59.66
  Q 55.85 58.41 54.67 57.65"
/>
<path stroke="#cfb0b5" vector-effect="non-scaling-stroke" d="
  M 58.24 60.12
  L 58.24 61.27"
/>
<path stroke="#6f4f60" vector-effect="non-scaling-stroke" d="
  M 91.02 34.45
  Q 88.69 34.41 86.71 33.21"
/>
<path stroke="#91909a" vector-effect="non-scaling-stroke" d="
  M 50.01 71.23
  L 42.10 69.16"
/>
<path stroke="#f9f9f9" vector-effect="non-scaling-stroke" d="
  M 42.10 69.16
  Q 41.13 68.77 40.44 68.83
  Q 39.92 68.88 39.90 69.41
  Q 39.75 75.30 36.13 79.80
  A 0.73 0.73 0.0 0 0 36.61 80.98
  Q 41.08 81.52 45.59 80.38"
/>
<path stroke="#91909a" vector-effect="non-scaling-stroke" d="
  M 45.59 80.38
  Q 47.89 81.44 50.66 82.68
  Q 53.28 83.84 55.52 85.36
  Q 61.17 89.19 66.38 92.78
  Q 67.21 93.36 66.21 93.51
  L 52.27 95.66"
/>
<path stroke="#c8aaae" vector-effect="non-scaling-stroke" d="
  M 52.27 95.66
  Q 49.99 95.75 48.26 94.70"
/>
<path stroke="#91909a" vector-effect="non-scaling-stroke" d="
  M 48.26 94.70
  Q 45.67 93.39 41.82 93.07
  Q 41.31 93.03 41.28 93.53
  L 41.21 94.40
  A 0.58 0.58 0.0 0 0 41.64 95.00
  L 42.26 95.16
  Q 43.23 95.42 42.28 95.76
  L 41.09 96.19"
/>
<path stroke="#674856" vector-effect="non-scaling-stroke" d="
  M 51.28 99.32
  Q 52.30 97.85 52.27 95.66"
/>
<path stroke="#91909a" vector-effect="non-scaling-stroke" d="
  M 59.93 74.13
  Q 62.46 75.21 64.90 75.18
  Q 65.42 75.17 65.21 74.70
  L 63.90 71.78"
/>
<path stroke="#674856" vector-effect="non-scaling-stroke" d="
  M 48.26 94.70
  L 47.93 98.41"
/>
<path stroke="#9797a0" vector-effect="non-scaling-stroke" d="
  M 42.10 69.16
  Q 39.88 75.46 45.59 80.38"
/>
<path stroke="#674856" vector-effect="non-scaling-stroke" d="
  M 74.03 23.99
  C 72.42 24.09 69.31 23.79 68.17 22.49
  Q 66.79 20.91 66.84 23.01
  Q 66.90 25.48 67.91 28.41
  Q 68.34 29.66 69.60 29.27
  Q 73.43 28.09 74.48 24.55
  Q 74.66 23.95 74.03 23.99"
/>
<path stroke="#9f9eab" vector-effect="non-scaling-stroke" d="
  M 90.02 27.23
  Q 89.28 26.64 88.52 27.12
  Q 88.03 27.43 88.26 27.96
  Q 88.78 29.16 89.82 29.96
  Q 90.39 30.40 90.88 29.88
  L 94.56 26.02
  A 0.86 0.85 41.7 0 0 94.48 24.77
  Q 94.30 24.62 94.08 24.58
  Q 93.38 24.43 92.91 24.96
  L 90.99 27.15
  A 0.71 0.70 39.8 0 1 90.02 27.23"
/>
<path stroke="#80dfd3" vector-effect="non-scaling-stroke" d="
  M 106.62 54.48
  A 0.98 0.98 0.0 0 0 105.64 53.50
  L 59.18 53.50
  A 0.98 0.98 0.0 0 0 58.20 54.48
  L 58.20 54.52
  A 0.98 0.98 0.0 0 0 59.18 55.50
  L 105.64 55.50
  A 0.98 0.98 0.0 0 0 106.62 54.52
  L 106.62 54.48"
/>
<path stroke="#80dfd3" vector-effect="non-scaling-stroke" d="
  M 65.5599 66.9036
  A 0.99 0.99 0.0 0 0 64.5682 65.9153
  L 59.2082 65.9247
  A 0.99 0.99 0.0 0 0 58.2199 66.9164
  L 58.2201 66.9964
  A 0.99 0.99 0.0 0 0 59.2118 67.9847
  L 64.5718 67.9753
  A 0.99 0.99 0.0 0 0 65.5601 66.9836
  L 65.5599 66.9036"
/>
<path stroke="#9797a0" vector-effect="non-scaling-stroke" d="
  M 78.56 77.76
  A 0.35 0.35 0.0 0 0 78.05 77.43
  L 71.05 81.21
  A 0.35 0.35 0.0 0 0 70.96 81.75
  L 77.47 89.24
  A 0.35 0.35 0.0 0 0 78.09 89.02
  L 78.56 77.76"
/>
</g>
<path fill="#ffffff" d="
  M 8.62 0.00
  L 116.24 0.00
  Q 123.44 1.59 125.00 8.62
  L 125.00 106.23
  Q 123.41 113.46 116.38 115.00
  L 8.52 115.00
  Q 1.48 113.21 0.00 106.38
  L 0.00 8.77
  Q 1.58 1.56 8.62 0.00
  Z
  M 60.33 29.70
  Q 58.56 32.20 54.99 33.20
  Q 50.73 34.40 50.16 34.71
  C 45.85 37.05 42.14 41.75 40.09 45.95
  Q 39.86 46.42 40.12 46.87
  L 43.93 53.55
  Q 40.72 58.50 41.91 63.51
  Q 40.75 64.31 40.99 67.62
  Q 41.02 68.08 40.56 68.13
  Q 40.36 68.15 40.19 68.03
  Q 39.84 67.80 39.77 67.38
  Q 39.03 63.29 37.22 60.19
  C 34.94 56.29 32.40 52.10 32.40 47.30
  Q 32.40 46.55 31.86 47.07
  Q 28.03 50.86 26.22 56.16
  Q 26.05 56.63 26.38 57.00
  L 30.31 61.48
  Q 30.91 62.17 30.04 61.90
  Q 27.99 61.29 26.19 60.32
  Q 25.23 59.80 25.09 60.88
  Q 24.35 66.98 26.11 72.14
  Q 26.44 73.11 25.59 72.53
  C 22.22 70.26 18.82 68.59 16.76 64.97
  Q 16.09 63.77 15.75 65.10
  Q 14.45 70.35 15.39 75.21
  A 0.89 0.87 -86.8 0 0 15.97 75.88
  L 20.74 77.52
  Q 24.08 78.67 20.55 78.72
  Q 18.99 78.75 17.17 78.95
  Q 16.22 79.05 16.61 79.92
  Q 21.86 91.60 32.84 94.44
  A 0.21 0.21 0.0 0 1 32.93 94.79
  Q 32.75 94.98 32.48 94.98
  Q 18.48 95.08 5.58 95.18
  Q 5.12 95.18 5.12 95.64
  L 5.12 95.94
  Q 5.12 96.22 5.40 96.22
  L 41.09 96.19
  Q 40.76 98.74 40.50 101.20
  Q 40.44 101.76 40.66 102.22
  Q 40.96 102.85 41.65 102.80
  Q 42.18 102.76 42.48 102.33
  Q 44.96 98.85 47.93 98.41
  Q 49.82 98.54 51.28 99.32
  Q 62.14 102.60 73.50 102.30
  Q 74.92 102.26 76.77 101.42
  Q 77.18 101.23 77.61 101.38
  Q 80.03 102.21 83.01 102.75
  Q 84.09 102.94 84.40 101.94
  A 1.17 1.13 -58.2 0 0 84.16 100.85
  L 81.08 97.39
  Q 80.56 96.81 80.91 96.12
  Q 81.35 95.27 80.75 94.47
  Q 80.30 93.87 81.05 93.75
  Q 81.44 93.69 81.63 93.34
  Q 86.83 83.54 88.80 72.77
  Q 89.01 71.62 88.58 69.20
  Q 88.66 68.85 89.13 68.87
  Q 95.47 69.14 102.77 70.15
  Q 108.32 70.92 112.99 69.13
  C 118.91 66.87 122.44 60.43 117.33 55.05
  Q 113.79 51.33 108.30 50.14
  Q 96.36 47.58 86.16 46.72
  Q 88.29 42.73 88.25 37.16
  Q 90.27 36.07 91.02 34.45
  C 95.41 33.91 98.59 30.36 97.64 25.98
  C 96.28 19.65 88.04 18.34 84.71 24.00
  Q 81.92 28.75 86.71 33.21
  L 85.50 36.22
  Q 83.55 37.50 82.43 39.37
  Q 80.85 42.00 80.54 42.38
  Q 79.34 43.81 78.09 45.00
  Q 77.28 45.76 76.59 44.90
  Q 73.90 41.55 71.51 38.34
  C 70.58 37.09 69.04 37.12 67.99 35.95
  Q 67.40 35.30 66.95 34.60
  Q 66.69 34.19 66.65 33.71
  L 66.43 30.94
  Q 70.38 31.40 73.94 30.36
  A 1.52 1.52 0.0 0 0 75.03 29.00
  L 75.38 24.22
  Q 75.42 23.60 76.04 23.54
  L 77.03 23.43
  A 0.73 0.72 87.3 0 0 77.67 22.72
  C 77.68 20.01 77.47 16.31 74.20 15.92
  Q 73.71 15.86 73.38 15.50
  Q 69.67 11.41 63.70 12.35
  C 59.26 13.04 56.75 21.02 55.64 24.99
  Q 55.09 26.94 56.65 28.19
  C 57.87 29.17 58.85 29.13 60.33 29.70
  Z"
/>
<path fill="#2f2e41" d="
  M 66.43 30.94
  L 60.33 29.70
  C 58.85 29.13 57.87 29.17 56.65 28.19
  Q 55.09 26.94 55.64 24.99
  C 56.75 21.02 59.26 13.04 63.70 12.35
  Q 69.67 11.41 73.38 15.50
  Q 73.71 15.86 74.20 15.92
  C 77.47 16.31 77.68 20.01 77.67 22.72
  A 0.73 0.72 87.3 0 1 77.03 23.43
  L 76.04 23.54
  Q 75.42 23.60 75.38 24.22
  L 75.03 29.00
  A 1.52 1.52 0.0 0 1 73.94 30.36
  Q 70.38 31.40 66.43 30.94
  Z
  M 74.03 23.99
  C 72.42 24.09 69.31 23.79 68.17 22.49
  Q 66.79 20.91 66.84 23.01
  Q 66.90 25.48 67.91 28.41
  Q 68.34 29.66 69.60 29.27
  Q 73.43 28.09 74.48 24.55
  Q 74.66 23.95 74.03 23.99
  Z"
/>
<path fill="#3f3d56" d="
  M 91.02 34.45
  Q 88.69 34.41 86.71 33.21
  Q 81.92 28.75 84.71 24.00
  C 88.04 18.34 96.28 19.65 97.64 25.98
  C 98.59 30.36 95.41 33.91 91.02 34.45
  Z
  M 90.02 27.23
  Q 89.28 26.64 88.52 27.12
  Q 88.03 27.43 88.26 27.96
  Q 88.78 29.16 89.82 29.96
  Q 90.39 30.40 90.88 29.88
  L 94.56 26.02
  A 0.86 0.85 41.7 0 0 94.48 24.77
  Q 94.30 24.62 94.08 24.58
  Q 93.38 24.43 92.91 24.96
  L 90.99 27.15
  A 0.71 0.70 39.8 0 1 90.02 27.23
  Z"
/>
<path fill="#9e616a" d="
  M 68.17 22.49
  C 69.31 23.79 72.42 24.09 74.03 23.99
  Q 74.66 23.95 74.48 24.55
  Q 73.43 28.09 69.60 29.27
  Q 68.34 29.66 67.91 28.41
  Q 66.90 25.48 66.84 23.01
  Q 66.79 20.91 68.17 22.49
  Z"
/>
<path fill="#ffffff" d="
  M 90.99 27.15
  L 92.91 24.96
  Q 93.38 24.43 94.08 24.58
  Q 94.30 24.62 94.48 24.77
  A 0.86 0.85 41.7 0 1 94.56 26.02
  L 90.88 29.88
  Q 90.39 30.40 89.82 29.96
  Q 88.78 29.16 88.26 27.96
  Q 88.03 27.43 88.52 27.12
  Q 89.28 26.64 90.02 27.23
  A 0.71 0.70 39.8 0 0 90.99 27.15
  Z"
/>
<path fill="#f2f2f2" d="
  M 60.33 29.70
  L 66.43 30.94
  L 66.65 33.71
  Q 66.69 34.19 66.95 34.60
  Q 67.40 35.30 67.99 35.95
  C 69.04 37.12 70.58 37.09 71.51 38.34
  Q 73.90 41.55 76.59 44.90
  Q 77.28 45.76 78.09 45.00
  Q 79.34 43.81 80.54 42.38
  Q 80.85 42.00 82.43 39.37
  Q 83.55 37.50 85.50 36.22
  Q 87.12 38.03 88.25 37.16
  Q 88.29 42.73 86.16 46.72
  Q 70.57 45.19 58.00 46.31
  Q 54.72 46.60 49.94 48.62
  Q 49.53 48.79 49.74 49.18
  L 51.32 52.13
  Q 51.57 52.58 51.96 52.92
  Q 54.16 54.85 54.67 57.65
  Q 53.28 58.60 52.63 59.74
  Q 47.33 57.94 43.93 53.55
  L 40.12 46.87
  Q 39.86 46.42 40.09 45.95
  C 42.14 41.75 45.85 37.05 50.16 34.71
  Q 50.73 34.40 54.99 33.20
  Q 58.56 32.20 60.33 29.70
  Z"
/>
<path fill="#9e616a" d="
  M 86.71 33.21
  Q 88.69 34.41 91.02 34.45
  Q 90.27 36.07 88.25 37.16
  Q 87.12 38.03 85.50 36.22
  L 86.71 33.21
  Z"
/>
<path fill="#00bfa6" d="
  M 86.16 46.72
  Q 96.36 47.58 108.30 50.14
  Q 113.79 51.33 117.33 55.05
  C 122.44 60.43 118.91 66.87 112.99 69.13
  Q 108.32 70.92 102.77 70.15
  Q 95.47 69.14 89.13 68.87
  Q 88.66 68.85 88.58 69.20
  Q 88.26 69.06 88.00 69.07
  Q 75.91 69.38 63.90 71.78
  Q 61.08 71.63 59.93 74.13
  L 57.88 76.62
  A 1.58 1.57 -41.8 0 1 55.34 76.48
  Q 53.21 73.17 50.01 71.23
  Q 44.73 67.75 41.91 63.51
  Q 40.72 58.50 43.93 53.55
  Q 47.33 57.94 52.63 59.74
  Q 52.51 60.00 52.84 60.24
  Q 53.24 60.54 53.32 61.03
  Q 53.65 63.28 55.75 63.28
  Q 56.27 63.28 56.64 62.91
  L 58.24 61.27
  Q 58.95 61.74 59.25 61.74
  Q 82.43 61.75 105.46 61.74
  Q 106.46 61.74 106.61 60.75
  Q 106.65 60.44 106.49 60.15
  A 0.82 0.82 0.0 0 0 105.76 59.73
  L 58.24 60.12
  Q 57.78 60.18 57.44 60.10
  Q 57.13 60.04 56.83 59.66
  Q 55.85 58.41 54.67 57.65
  Q 54.16 54.85 51.96 52.92
  Q 51.57 52.58 51.32 52.13
  L 49.74 49.18
  Q 49.53 48.79 49.94 48.62
  Q 54.72 46.60 58.00 46.31
  Q 70.57 45.19 86.16 46.72
  Z
  M 106.62 54.48
  A 0.98 0.98 0.0 0 0 105.64 53.50
  L 59.18 53.50
  A 0.98 0.98 0.0 0 0 58.20 54.48
  L 58.20 54.52
  A 0.98 0.98 0.0 0 0 59.18 55.50
  L 105.64 55.50
  A 0.98 0.98 0.0 0 0 106.62 54.52
  L 106.62 54.48
  Z
  M 65.5599 66.9036
  A 0.99 0.99 0.0 0 0 64.5682 65.9153
  L 59.2082 65.9247
  A 0.99 0.99 0.0 0 0 58.2199 66.9164
  L 58.2201 66.9964
  A 0.99 0.99 0.0 0 0 59.2118 67.9847
  L 64.5718 67.9753
  A 0.99 0.99 0.0 0 0 65.5601 66.9836
  L 65.5599 66.9036
  Z"
/>
<path fill="#f2f2f2" d="
  M 41.91 63.51
  Q 44.73 67.75 50.01 71.23
  L 42.10 69.16
  Q 41.13 68.77 40.44 68.83
  Q 39.92 68.88 39.90 69.41
  Q 39.75 75.30 36.13 79.80
  A 0.73 0.73 0.0 0 0 36.61 80.98
  Q 41.08 81.52 45.59 80.38
  Q 47.89 81.44 50.66 82.68
  Q 53.28 83.84 55.52 85.36
  Q 61.17 89.19 66.38 92.78
  Q 67.21 93.36 66.21 93.51
  L 52.27 95.66
  Q 49.99 95.75 48.26 94.70
  Q 45.67 93.39 41.82 93.07
  Q 41.31 93.03 41.28 93.53
  L 41.21 94.40
  A 0.58 0.58 0.0 0 0 41.64 95.00
  L 42.26 95.16
  Q 43.23 95.42 42.28 95.76
  L 41.09 96.19
  L 5.40 96.22
  Q 5.12 96.22 5.12 95.94
  L 5.12 95.64
  Q 5.12 95.18 5.58 95.18
  Q 18.48 95.08 32.48 94.98
  Q 32.75 94.98 32.93 94.79
  A 0.21 0.21 0.0 0 0 32.84 94.44
  Q 21.86 91.60 16.61 79.92
  Q 16.22 79.05 17.17 78.95
  Q 18.99 78.75 20.55 78.72
  Q 24.08 78.67 20.74 77.52
  L 15.97 75.88
  A 0.89 0.87 -86.8 0 1 15.39 75.21
  Q 14.45 70.35 15.75 65.10
  Q 16.09 63.77 16.76 64.97
  C 18.82 68.59 22.22 70.26 25.59 72.53
  Q 26.44 73.11 26.11 72.14
  Q 24.35 66.98 25.09 60.88
  Q 25.23 59.80 26.19 60.32
  Q 27.99 61.29 30.04 61.90
  Q 30.91 62.17 30.31 61.48
  L 26.38 57.00
  Q 26.05 56.63 26.22 56.16
  Q 28.03 50.86 31.86 47.07
  Q 32.40 46.55 32.40 47.30
  C 32.40 52.10 34.94 56.29 37.22 60.19
  Q 39.03 63.29 39.77 67.38
  Q 39.84 67.80 40.19 68.03
  Q 40.36 68.15 40.56 68.13
  Q 41.02 68.08 40.99 67.62
  Q 40.75 64.31 41.91 63.51
  Z"
/>
<rect fill="#ffffff" x="58.20" y="53.50" width="48.42" height="2.00" rx="0.98"/>
<path fill="#9e616a" d="
  M 54.67 57.65
  Q 55.85 58.41 56.83 59.66
  Q 57.13 60.04 57.44 60.10
  Q 57.78 60.18 58.24 60.12
  L 58.24 61.27
  L 56.64 62.91
  Q 56.27 63.28 55.75 63.28
  Q 53.65 63.28 53.32 61.03
  Q 53.24 60.54 52.84 60.24
  Q 52.51 60.00 52.63 59.74
  Q 53.28 58.60 54.67 57.65
  Z"
/>
<path fill="#ffffff" d="
  M 58.24 61.27
  L 58.24 60.12
  L 105.76 59.73
  A 0.82 0.82 0.0 0 1 106.49 60.15
  Q 106.65 60.44 106.61 60.75
  Q 106.46 61.74 105.46 61.74
  Q 82.43 61.75 59.25 61.74
  Q 58.95 61.74 58.24 61.27
  Z"
/>
<rect fill="#ffffff" x="-3.67" y="-1.03" transform="translate(61.89,66.95) rotate(-0.1)" width="7.34" height="2.06" rx="0.99"/>
<path fill="#ffffff" d="
  M 42.10 69.16
  Q 39.88 75.46 45.59 80.38
  Q 41.08 81.52 36.61 80.98
  A 0.73 0.73 0.0 0 1 36.13 79.80
  Q 39.75 75.30 39.90 69.41
  Q 39.92 68.88 40.44 68.83
  Q 41.13 68.77 42.10 69.16
  Z"
/>
<path fill="#2f2e41" d="
  M 88.58 69.20
  Q 89.01 71.62 88.80 72.77
  Q 86.83 83.54 81.63 93.34
  Q 81.44 93.69 81.05 93.75
  Q 80.30 93.87 80.75 94.47
  Q 81.35 95.27 80.91 96.12
  Q 80.56 96.81 81.08 97.39
  L 84.16 100.85
  A 1.17 1.13 -58.2 0 1 84.40 101.94
  Q 84.09 102.94 83.01 102.75
  Q 80.03 102.21 77.61 101.38
  Q 77.18 101.23 76.77 101.42
  Q 74.92 102.26 73.50 102.30
  Q 62.14 102.60 51.28 99.32
  Q 52.30 97.85 52.27 95.66
  L 66.21 93.51
  Q 67.21 93.36 66.38 92.78
  Q 61.17 89.19 55.52 85.36
  Q 53.28 83.84 50.66 82.68
  Q 47.89 81.44 45.59 80.38
  Q 39.88 75.46 42.10 69.16
  L 50.01 71.23
  Q 53.21 73.17 55.34 76.48
  A 1.58 1.57 -41.8 0 0 57.88 76.62
  L 59.93 74.13
  Q 62.46 75.21 64.90 75.18
  Q 65.42 75.17 65.21 74.70
  L 63.90 71.78
  Q 75.91 69.38 88.00 69.07
  Q 88.26 69.06 88.58 69.20
  Z
  M 78.56 77.76
  A 0.35 0.35 0.0 0 0 78.05 77.43
  L 71.05 81.21
  A 0.35 0.35 0.0 0 0 70.96 81.75
  L 77.47 89.24
  A 0.35 0.35 0.0 0 0 78.09 89.02
  L 78.56 77.76
  Z"
/>
<path fill="#f2f2f2" d="
  M 63.90 71.78
  L 65.21 74.70
  Q 65.42 75.17 64.90 75.18
  Q 62.46 75.21 59.93 74.13
  Q 61.08 71.63 63.90 71.78
  Z"
/>
<path fill="#ffffff" d="
  M 78.56 77.76
  L 78.09 89.02
  A 0.35 0.35 0.0 0 1 77.47 89.24
  L 70.96 81.75
  A 0.35 0.35 0.0 0 1 71.05 81.21
  L 78.05 77.43
  A 0.35 0.35 0.0 0 1 78.56 77.76
  Z"
/>
<path fill="#2f2e41" d="
  M 48.26 94.70
  L 47.93 98.41
  Q 44.96 98.85 42.48 102.33
  Q 42.18 102.76 41.65 102.80
  Q 40.96 102.85 40.66 102.22
  Q 40.44 101.76 40.50 101.20
  Q 40.76 98.74 41.09 96.19
  L 42.28 95.76
  Q 43.23 95.42 42.26 95.16
  L 41.64 95.00
  A 0.58 0.58 0.0 0 1 41.21 94.40
  L 41.28 93.53
  Q 41.31 93.03 41.82 93.07
  Q 45.67 93.39 48.26 94.70
  Z"
/>
<path fill="#9e616a" d="
  M 48.26 94.70
  Q 49.99 95.75 52.27 95.66
  Q 52.30 97.85 51.28 99.32
  Q 49.82 98.54 47.93 98.41
  L 48.26 94.70
  Z"
/>
</svg>
