<?xml version="1.0" encoding="UTF-8" standalone="no"?>
<!DOCTYPE svg PUBLIC "-//W3C//DTD SVG 1.1//EN" "http://www.w3.org/Graphics/SVG/1.1/DTD/svg11.dtd">
<svg xmlns="http://www.w3.org/2000/svg" version="1.1" viewBox="0.00 0.00 298.00 226.00">
<g stroke-width="2.00" fill="none" stroke-linecap="butt">
<path stroke="#91909a" vector-effect="non-scaling-stroke" d="
  M 64.61 53.25
  C 63.72 49.74 60.93 49.32 57.76 49.27
  Q 54.89 49.23 53.41 51.87
  Q 50.11 57.76 54.34 61.69"
/>
<path stroke="#c9aaae" vector-effect="non-scaling-stroke" d="
  M 54.34 61.69
  Q 55.64 61.54 55.41 62.74"
/>
<path stroke="#9998a4" vector-effect="non-scaling-stroke" d="
  M 54.58 65.35
  C 52.69 67.75 48.93 69.15 49.25 72.75
  Q 49.96 80.69 49.88 88.74"
/>
<path stroke="#704f60" vector-effect="non-scaling-stroke" d="
  M 75.28 70.28
  Q 72.35 70.10 71.49 73.13
  Q 71.36 73.61 71.03 73.98
  L 67.77 77.70
  A 0.49 0.48 33.5 0 0 67.93 78.45
  Q 69.89 79.40 72.36 78.96"
/>
<path stroke="#37364c" vector-effect="non-scaling-stroke" d="
  M 71.00 95.78
  Q 71.49 96.40 70.52 96.84
  C 64.93 99.40 58.07 100.26 51.73 101.45"
/>
<path stroke="#684856" vector-effect="non-scaling-stroke" d="
  M 64.72 53.69
  Q 64.29 53.43 63.71 53.59
  Q 63.25 53.73 62.91 54.10
  Q 61.59 55.57 59.84 54.92
  Q 59.56 54.82 59.31 54.99
  Q 55.82 57.31 55.90 60.56
  Q 55.91 61.10 55.44 61.35
  Q 55.07 61.56 54.34 61.69"
/>
<path stroke="#684856" vector-effect="non-scaling-stroke" d="
  M 97.49 130.19
  Q 95.23 129.93 94.50 131.07"
/>
<path stroke="#684856" vector-effect="non-scaling-stroke" d="
  M 67.12 144.61
  Q 65.22 143.12 63.23 143.23"
/>
<path stroke="#704f60" vector-effect="non-scaling-stroke" d="
  M 76.72 66.79
  Q 74.82 65.51 72.65 66.36"
/>
<path stroke="#684856" vector-effect="non-scaling-stroke" d="
  M 65.18 147.10
  Q 63.69 148.06 61.66 147.26"
/>
<path stroke="#684856" vector-effect="non-scaling-stroke" d="
  M 98.24 131.57
  L 95.07 133.53"
/>
<path stroke="#91909a" vector-effect="non-scaling-stroke" d="
  M 190.08 55.70
  Q 190.04 56.22 189.89 56.43"
/>
<path stroke="#91909a" vector-effect="non-scaling-stroke" d="
  M 235.90 118.32
  Q 229.57 114.58 224.93 118.15
  Q 223.47 119.27 222.75 120.93
  Q 221.54 123.72 223.57 124.75"
/>
<path stroke="#f9d4d4" vector-effect="non-scaling-stroke" d="
  M 223.57 124.75
  L 224.83 130.29"
/>
<path stroke="#187774" vector-effect="non-scaling-stroke" d="
  M 233.35 132.29
  Q 232.80 131.84 231.88 131.98
  C 230.45 132.18 229.93 133.40 228.21 133.50"
/>
<path stroke="#97727c" vector-effect="non-scaling-stroke" d="
  M 227.73 131.74
  L 229.34 127.16
  A 1.10 1.08 -50.0 0 0 229.27 126.26
  Q 227.61 123.18 223.57 124.75"
/>
<path stroke="#187774" vector-effect="non-scaling-stroke" d="
  M 235.44 166.19
  Q 232.74 167.16 229.99 167.67
  Q 225.82 168.44 221.88 165.43"
/>
<path stroke="#80bbae" vector-effect="non-scaling-stroke" d="
  M 220.55 152.06
  L 221.87 152.35
  Q 222.63 152.52 222.95 151.82
  L 223.77 150.03
  Q 224.07 149.39 223.52 148.94
  L 219.86 145.93"
/>
<path stroke="#97727c" vector-effect="non-scaling-stroke" d="
  M 202.48 188.30
  L 197.98 189.78"
/>
<path stroke="#97727c" vector-effect="non-scaling-stroke" d="
  M 194.08 190.34
  Q 192.11 189.51 188.62 189.30"
/>
<path stroke="#80bbae" vector-effect="non-scaling-stroke" d="
  M 217.69 142.53
  Q 215.56 142.05 212.71 142.77"
/>
<path stroke="#97727c" vector-effect="non-scaling-stroke" d="
  M 204.57 196.05
  L 200.42 196.49"
/>
<path stroke="#97727c" vector-effect="non-scaling-stroke" d="
  M 191.75 197.06
  L 187.48 196.34"
/>
</g>
<path fill="#2f2e41" d="
  M 78.19 22.10
  L 78.22 21.85
  Q 78.23 21.74 78.34 21.75
  Q 102.30 23.85 114.46 43.45
  C 117.66 48.62 120.10 55.57 120.55 61.85
  Q 120.55 61.92 120.49 61.92
  L 120.48 61.93
  Q 120.31 61.95 120.29 61.78
  C 117.27 39.65 100.53 23.75 78.23 22.16
  Q 78.18 22.15 78.19 22.10
  Z"
/>
<path fill="#2f2e41" d="
  M 32.92 57.05
  C 32.61 58.31 32.55 59.57 32.17 60.82
  Q 31.94 61.60 31.88 60.78
  Q 31.80 59.60 32.03 58.52
  Q 37.27 33.97 60.23 24.65
  Q 65.19 22.64 70.58 22.18
  Q 70.65 22.17 70.67 22.25
  L 70.67 22.25
  Q 70.69 22.41 70.54 22.44
  C 67.02 23.14 63.27 23.91 59.97 25.31
  Q 38.66 34.32 32.92 57.05
  Z"
/>
<path fill="#f2f2f2" d="
  M 64.61 53.25
  C 63.72 49.74 60.93 49.32 57.76 49.27
  Q 54.89 49.23 53.41 51.87
  Q 50.11 57.76 54.34 61.69
  Q 55.64 61.54 55.41 62.74
  Q 53.58 61.98 54.58 65.35
  C 52.69 67.75 48.93 69.15 49.25 72.75
  Q 49.96 80.69 49.88 88.74
  Q 48.66 88.27 47.76 88.88
  A 1.14 1.13 53.7 0 1 46.22 88.64
  C 40.39 81.12 39.12 72.31 39.02 63.02
  A 0.86 0.86 0.0 0 1 39.91 62.15
  L 42.61 62.24
  A 0.81 0.80 83.9 0 0 43.41 61.24
  L 43.10 59.95
  Q 42.94 59.31 42.30 59.16
  Q 41.55 59.00 40.84 59.08
  A 1.63 1.62 -2.7 0 1 39.01 57.42
  Q 39.07 55.53 39.76 53.67
  Q 43.43 43.77 53.38 42.64
  C 60.06 41.88 67.74 44.87 70.05 51.59
  Q 70.25 52.16 69.64 52.15
  Q 67.02 52.12 64.61 53.25
  Z
  M 46.91 64.99
  Q 46.14 65.43 47.24 66.68
  Q 47.69 67.20 48.14 66.68
  Q 48.44 66.32 48.31 65.64
  A 0.95 0.95 0.0 0 0 46.91 64.99
  Z"
/>
<ellipse fill="#2f2e41" cx="0.00" cy="0.00" transform="translate(175.23,45.52) rotate(27.1)" rx="1.53" ry="0.16"/>
<path fill="#f2f2f2" d="
  M 190.08 55.70
  Q 190.04 56.22 189.89 56.43
  Q 186.19 58.90 181.96 59.49
  A 1.33 1.32 -89.7 0 1 180.47 57.98
  Q 181.12 53.74 184.70 52.46
  A 0.48 0.48 0.0 0 0 184.83 51.63
  Q 182.75 50.01 180.61 48.65
  Q 180.69 48.75 180.73 48.67
  Q 180.77 48.61 180.81 48.64
  Q 185.87 51.68 190.08 55.70
  Z"
/>
<path fill="#2f2e41" d="
  M 64.61 53.25
  Q 64.81 53.09 64.72 53.69
  Q 64.29 53.43 63.71 53.59
  Q 63.25 53.73 62.91 54.10
  Q 61.59 55.57 59.84 54.92
  Q 59.56 54.82 59.31 54.99
  Q 55.82 57.31 55.90 60.56
  Q 55.91 61.10 55.44 61.35
  Q 55.07 61.56 54.34 61.69
  Q 50.11 57.76 53.41 51.87
  Q 54.89 49.23 57.76 49.27
  C 60.93 49.32 63.72 49.74 64.61 53.25
  Z"
/>
<path fill="#a0616a" d="
  M 64.72 53.69
  C 64.89 55.68 65.19 58.02 64.44 59.77
  C 63.02 63.09 58.55 64.34 55.41 62.74
  Q 55.64 61.54 54.34 61.69
  Q 55.07 61.56 55.44 61.35
  Q 55.91 61.10 55.90 60.56
  Q 55.82 57.31 59.31 54.99
  Q 59.56 54.82 59.84 54.92
  Q 61.59 55.57 62.91 54.10
  Q 63.25 53.73 63.71 53.59
  Q 64.29 53.43 64.72 53.69
  Z"
/>
<path fill="#2f2e41" d="
  M 190.08 55.70
  L 191.52 57.18
  Q 191.90 57.58 191.38 57.41
  Q 190.68 57.20 189.89 56.43
  Q 190.04 56.22 190.08 55.70
  Z"
/>
<path fill="#f2f2f2" d="
  M 187.86 74.34
  Q 187.98 74.65 187.71 74.85
  A 0.60 0.59 -33.1 0 1 186.84 74.67
  Q 184.40 70.34 183.76 65.49
  Q 183.69 64.97 184.01 64.54
  L 186.70 60.89
  Q 187.03 60.44 187.38 60.87
  Q 188.40 62.12 189.16 63.52
  Q 191.15 67.17 190.14 71.15
  A 1.34 1.33 82.4 0 1 189.51 71.98
  Q 188.49 72.54 187.92 73.55
  Q 187.71 73.93 187.86 74.34
  Z"
/>
<path fill="#2f2e41" d="
  M 37.29 87.97
  Q 34.27 83.65 32.94 78.25
  Q 32.20 75.26 31.55 72.23
  Q 31.09 70.04 31.12 68.21
  Q 31.16 66.08 31.46 64.16
  Q 31.79 62.04 31.92 64.18
  Q 32.22 69.45 32.91 75.76
  Q 33.42 80.43 37.29 87.97
  Z"
/>
<path fill="#a0616a" d="
  M 76.72 66.79
  Q 74.82 65.51 72.65 66.36
  Q 72.25 65.08 72.98 64.28
  A 2.14 2.14 0.0 0 1 76.16 64.30
  Q 76.77 64.99 76.72 66.79
  Z"
/>
<path fill="#3f3d56" d="
  M 72.65 66.36
  Q 74.82 65.51 76.72 66.79
  Q 76.33 68.62 75.28 70.28
  Q 72.35 70.10 71.49 73.13
  Q 71.36 73.61 71.03 73.98
  L 67.77 77.70
  A 0.49 0.48 33.5 0 0 67.93 78.45
  Q 69.89 79.40 72.36 78.96
  Q 71.98 81.08 69.67 83.18
  Q 68.74 84.02 68.25 85.96
  C 67.80 87.75 68.68 89.03 68.33 90.73
  Q 68.22 91.24 68.50 91.68
  L 71.00 95.78
  Q 71.49 96.40 70.52 96.84
  C 64.93 99.40 58.07 100.26 51.73 101.45
  L 50.27 99.50
  Q 49.93 99.06 50.06 98.51
  Q 50.78 95.49 49.95 92.83
  Q 49.78 92.31 49.98 91.81
  Q 50.52 90.38 49.88 88.74
  Q 49.96 80.69 49.25 72.75
  C 48.93 69.15 52.69 67.75 54.58 65.35
  L 54.94 64.66
  A 0.91 0.90 11.3 0 1 55.67 64.18
  Q 61.35 63.80 64.59 67.25
  Q 66.90 69.70 67.46 74.14
  Q 67.56 74.92 68.11 74.35
  Q 71.45 70.84 72.65 66.36
  Z"
/>
<path fill="#2f2e41" d="
  M 113.69 89.74
  Q 119.82 79.96 120.49 67.73
  A 0.07 0.06 -44.7 0 1 120.62 67.73
  Q 120.82 72.52 119.61 77.18
  Q 114.86 95.49 98.34 105.34
  Q 98.19 105.43 98.10 105.29
  L 97.95 105.05
  Q 97.93 105.01 97.96 104.99
  C 104.46 101.06 109.54 96.37 113.69 89.74
  Z"
/>
<path fill="#f2f2f2" d="
  M 172.43 72.26
  C 173.25 71.02 175.57 70.48 176.92 69.87
  Q 177.21 69.74 177.01 69.99
  L 176.79 70.25
  A 0.71 0.70 56.6 0 0 176.67 70.88
  Q 177.80 74.73 176.17 78.66
  C 175.45 80.41 173.85 80.92 172.50 82.05
  A 1.66 1.66 0.0 0 1 169.77 80.83
  Q 169.65 76.46 172.43 72.26
  Z"
/>
<path fill="#a0616a" d="
  M 75.28 70.28
  Q 75.89 71.54 75.96 72.43
  Q 76.01 73.20 74.96 74.22
  Q 72.89 76.22 72.36 78.96
  Q 69.89 79.40 67.93 78.45
  A 0.49 0.48 33.5 0 1 67.77 77.70
  L 71.03 73.98
  Q 71.36 73.61 71.49 73.13
  Q 72.35 70.10 75.28 70.28
  Z"
/>
<path fill="#f2f2f2" d="
  M 168.80 72.47
  Q 169.00 72.35 169.22 72.33
  Q 169.40 72.31 169.24 72.39
  L 168.55 72.74
  Q 168.14 72.95 168.07 73.40
  Q 167.50 76.90 164.36 77.44
  C 163.49 77.59 162.56 77.15 162.04 76.44
  Q 161.61 75.85 162.20 75.42
  Q 163.11 74.76 163.54 73.70
  Q 163.73 73.22 164.19 72.99
  Q 166.10 72.02 168.29 72.55
  A 0.73 0.66 33.5 0 0 168.80 72.47
  Z"
/>
<path fill="#2f2e41" d="
  M 37.29 87.97
  Q 42.98 97.25 51.47 103.22
  Q 52.90 104.23 52.22 102.62
  L 51.73 101.45
  C 58.07 100.26 64.93 99.40 70.52 96.84
  Q 71.49 96.40 71.00 95.78
  L 92.14 101.64
  A 3.02 3.01 -86.2 0 1 94.32 104.14
  Q 95.98 116.21 97.81 128.38
  Q 97.97 129.40 97.49 130.19
  Q 95.23 129.93 94.50 131.07
  Q 89.15 121.58 86.71 110.83
  A 1.68 1.64 16.0 0 0 86.23 109.99
  Q 84.43 108.30 81.89 108.19
  Q 76.20 107.94 70.57 106.68
  Q 69.75 106.49 70.22 107.19
  Q 71.73 109.43 72.88 111.94
  C 74.73 115.96 77.37 119.43 79.87 123.01
  A 2.36 2.35 44.6 0 1 79.89 125.68
  L 67.12 144.61
  Q 65.22 143.12 63.23 143.23
  C 64.29 136.86 67.64 131.11 71.43 125.89
  A 0.69 0.69 0.0 0 0 71.34 124.97
  C 66.50 120.49 62.08 115.96 58.45 110.33
  Q 57.46 108.79 56.15 107.59
  C 54.89 106.42 54.00 105.29 52.49 104.36
  Q 43.60 98.87 38.02 89.99
  Q 37.42 89.03 37.29 87.97
  Z"
/>
<path fill="#2f2e41" d="
  M 218.07 89.56
  C 196.83 91.90 180.09 107.88 177.67 129.49
  Q 177.64 129.68 177.46 129.65
  L 177.45 129.65
  Q 177.31 129.63 177.33 129.49
  Q 179.43 110.73 193.39 99.26
  Q 204.21 90.37 218.03 89.29
  Q 218.17 89.28 218.18 89.41
  L 218.18 89.42
  Q 218.20 89.55 218.07 89.56
  Z"
/>
<path fill="#2f2e41" d="
  M 264.94 143.43
  Q 268.10 127.67 261.64 114.65
  Q 250.37 91.94 223.81 89.40
  Q 223.72 89.39 223.80 89.36
  Q 223.86 89.33 223.80 89.29
  Q 223.73 89.24 223.81 89.25
  Q 232.34 89.42 239.70 92.72
  C 268.57 105.65 275.82 142.81 253.46 165.36
  Q 244.95 173.94 233.27 176.99
  Q 233.12 177.03 233.07 176.88
  L 233.01 176.63
  A 0.01 0.00 58.3 0 1 233.01 176.62
  C 248.84 172.14 261.74 159.42 264.94 143.43
  Z"
/>
<path fill="#f2f2f2" d="
  M 235.90 118.32
  Q 229.57 114.58 224.93 118.15
  Q 223.47 119.27 222.75 120.93
  Q 221.54 123.72 223.57 124.75
  L 224.83 130.29
  L 221.61 131.88
  Q 221.14 132.11 220.87 131.66
  C 218.32 127.46 216.48 121.83 219.11 117.37
  C 224.63 107.99 240.53 107.09 246.36 116.63
  Q 246.69 117.17 246.08 117.36
  Q 244.99 117.70 244.04 117.15
  Q 238.33 113.80 235.90 118.32
  Z"
/>
<path fill="#2f2e41" d="
  M 84.02 110.23
  Q 81.34 111.04 78.32 111.00
  Q 77.66 110.99 78.30 110.83
  Q 81.50 110.05 84.86 110.09
  Q 84.88 110.09 84.88 110.11
  Q 84.88 110.12 84.88 110.13
  Q 84.90 110.22 84.84 110.21
  Q 84.44 110.10 84.02 110.23
  Z"
/>
<path fill="#2f2e41" d="
  M 235.90 118.32
  Q 239.08 121.80 239.66 126.23
  Q 239.94 128.29 238.17 130.45
  A 1.12 1.12 0.0 0 1 237.36 130.87
  Q 235.22 130.99 233.35 132.29
  Q 232.80 131.84 231.88 131.98
  C 230.45 132.18 229.93 133.40 228.21 133.50
  Q 228.50 132.17 227.73 131.74
  L 229.34 127.16
  A 1.10 1.08 -50.0 0 0 229.27 126.26
  Q 227.61 123.18 223.57 124.75
  Q 221.54 123.72 222.75 120.93
  Q 223.47 119.27 224.93 118.15
  Q 229.57 114.58 235.90 118.32
  Z"
/>
<path fill="#ffb6b6" d="
  M 227.73 131.74
  L 224.83 130.29
  L 223.57 124.75
  Q 227.61 123.18 229.27 126.26
  A 1.10 1.08 -50.0 0 1 229.34 127.16
  L 227.73 131.74
  Z"
/>
<path fill="#f2f2f2" d="
  M 147.15 132.02
  C 146.07 129.57 144.99 125.26 149.04 125.15
  A 0.69 0.69 0.0 0 1 149.75 125.78
  Q 149.89 127.27 150.48 128.60
  A 1.12 1.10 55.7 0 1 150.25 129.85
  L 147.91 132.16
  Q 147.43 132.64 147.15 132.02
  Z"
/>
<path fill="#f2f2f2" d="
  M 247.46 133.84
  Q 245.61 132.63 246.70 130.09
  Q 246.91 129.59 247.42 129.43
  Q 249.44 128.80 249.75 126.89
  Q 249.91 125.87 250.07 126.88
  C 250.25 127.98 250.65 128.94 250.26 130.04
  C 249.70 131.68 248.97 133.13 248.84 134.90
  Q 248.75 136.17 248.14 137.27
  Q 247.87 137.76 247.91 138.33
  Q 248.04 140.27 247.34 142.15
  Q 247.12 142.73 247.36 143.31
  Q 248.57 146.11 249.09 149.23
  A 1.70 1.70 0.0 0 1 247.80 151.16
  Q 245.60 151.67 243.72 151.19
  A 0.95 0.95 0.0 0 1 243.07 149.93
  L 247.56 138.23
  Q 247.79 137.62 247.31 137.18
  L 246.78 136.68
  A 0.67 0.67 0.0 0 1 246.74 135.73
  L 247.59 134.81
  Q 248.10 134.25 247.46 133.84
  Z"
/>
<ellipse fill="#f2f2f2" cx="0.00" cy="0.00" transform="translate(141.11,133.19) rotate(68.3)" rx="6.51" ry="2.96"/>
<path fill="#a0616a" d="
  M 97.49 130.19
  Q 97.51 131.14 98.24 131.57
  L 95.07 133.53
  L 94.50 131.07
  Q 95.23 129.93 97.49 130.19
  Z"
/>
<path fill="#2f2e41" d="
  M 177.42 137.41
  Q 177.26 134.47 177.41 131.58
  Q 177.42 131.42 177.58 131.43
  L 177.58 131.43
  Q 177.73 131.44 177.73 131.59
  C 177.60 135.46 177.56 139.24 178.48 143.06
  Q 182.28 158.89 195.08 168.99
  Q 195.25 169.13 195.12 169.30
  L 195.11 169.31
  Q 194.97 169.48 194.80 169.35
  C 186.57 163.04 180.08 153.50 178.12 143.16
  Q 177.57 140.25 177.42 137.41
  Z"
/>
<path fill="#2f2e41" d="
  M 98.24 131.57
  Q 100.44 132.17 102.73 132.48
  Q 104.16 132.67 104.44 134.44
  Q 104.51 134.94 104.03 135.08
  L 96.54 137.20
  Q 96.02 137.35 95.81 136.85
  Q 95.12 135.17 95.07 133.53
  L 98.24 131.57
  Z"
/>
<path fill="#00bfa6" d="
  M 233.35 132.29
  Q 236.12 135.32 236.49 137.50
  Q 237.85 145.47 236.76 156.27
  C 236.65 157.33 236.19 157.58 235.89 158.45
  A 1.12 1.11 38.3 0 0 236.00 159.38
  Q 238.29 163.10 235.44 166.19
  Q 232.74 167.16 229.99 167.67
  Q 225.82 168.44 221.88 165.43
  Q 219.96 159.33 220.55 152.06
  L 221.87 152.35
  Q 222.63 152.52 222.95 151.82
  L 223.77 150.03
  Q 224.07 149.39 223.52 148.94
  L 219.86 145.93
  Q 223.77 140.34 224.63 138.86
  C 225.37 137.59 225.04 136.09 226.22 134.92
  Q 227.11 134.03 228.21 133.50
  C 229.93 133.40 230.45 132.18 231.88 131.98
  Q 232.80 131.84 233.35 132.29
  Z"
/>
<path fill="#00bfa6" d="
  M 217.69 142.53
  Q 215.56 142.05 212.71 142.77
  L 212.70 140.34
  Q 212.70 139.85 213.07 139.52
  Q 214.06 138.63 215.43 138.56
  Q 215.94 138.53 216.23 138.95
  Q 217.32 140.55 217.69 142.53
  Z"
/>
<path fill="#ffb6b6" d="
  M 217.69 142.53
  L 219.86 145.93
  L 223.52 148.94
  Q 224.07 149.39 223.77 150.03
  L 222.95 151.82
  Q 222.63 152.52 221.87 152.35
  L 220.55 152.06
  Q 214.75 148.50 213.05 146.02
  Q 211.89 144.32 212.71 142.77
  Q 215.56 142.05 217.69 142.53
  Z"
/>
<path fill="#a0616a" d="
  M 63.23 143.23
  Q 65.22 143.12 67.12 144.61
  L 65.18 147.10
  Q 63.69 148.06 61.66 147.26
  L 63.23 143.23
  Z"
/>
<path fill="#f2f2f2" d="
  M 142.09 153.92
  C 138.23 153.06 134.87 152.15 132.97 148.27
  A 1.15 1.11 -48.5 0 1 132.93 147.38
  Q 133.61 145.51 132.00 144.49
  Q 131.22 144.00 132.10 143.72
  Q 132.70 143.53 133.32 143.72
  C 138.11 145.18 142.98 147.81 142.49 153.63
  Q 142.46 154.00 142.09 153.92
  Z"
/>
<path fill="#2f2e41" d="
  M 65.18 147.10
  Q 65.78 148.64 67.72 150.52
  Q 68.96 151.73 68.62 153.76
  Q 68.50 154.45 67.87 154.17
  L 60.76 151.00
  Q 60.24 150.77 60.36 150.23
  Q 60.72 148.60 61.66 147.26
  Q 63.69 148.06 65.18 147.10
  Z"
/>
<path fill="#f2f2f2" d="
  M 146.73 150.92
  A 0.83 0.83 0.0 0 1 147.84 150.54
  L 148.00 150.61
  A 4.69 4.66 25.8 0 1 150.20 156.85
  L 150.20 156.85
  A 4.69 4.66 25.8 0 1 143.95 159.00
  L 143.78 158.93
  A 0.83 0.83 0.0 0 1 143.40 157.82
  L 146.73 150.92
  Z"
/>
<path fill="#2f2e41" d="
  M 221.88 165.43
  Q 225.82 168.44 229.99 167.67
  Q 232.74 167.16 235.44 166.19
  Q 234.98 167.92 234.76 172.50
  Q 234.69 174.00 233.08 175.72
  Q 232.86 175.96 232.79 176.28
  Q 232.74 176.49 232.79 176.70
  Q 232.83 176.86 232.68 176.92
  C 224.18 180.57 214.36 178.37 205.66 176.43
  A 2.11 2.10 -81.8 0 0 203.10 178.35
  L 202.48 188.30
  L 197.98 189.78
  Q 196.85 189.12 196.92 187.89
  Q 197.00 186.52 196.17 187.61
  L 194.08 190.34
  Q 192.11 189.51 188.62 189.30
  Q 191.70 179.58 195.65 169.86
  Q 195.72 169.69 195.59 169.52
  Q 195.55 169.47 195.53 169.43
  Q 195.49 169.34 195.59 169.27
  Q 199.52 166.35 204.51 165.97
  Q 213.33 165.30 221.88 165.43
  Z"
/>
<path fill="#ffb6b6" d="
  M 202.48 188.30
  L 204.57 196.05
  L 200.42 196.49
  L 197.98 189.78
  L 202.48 188.30
  Z"
/>
<path fill="#ffb6b6" d="
  M 188.62 189.30
  Q 192.11 189.51 194.08 190.34
  L 191.75 197.06
  L 187.48 196.34
  Q 189.08 192.31 188.62 189.30
  Z"
/>
<path fill="#2f2e41" d="
  M 204.57 196.05
  Q 205.91 199.06 206.19 202.57
  Q 206.24 203.11 205.71 203.27
  Q 204.56 203.60 204.12 202.53
  Q 203.73 201.59 203.44 202.56
  Q 203.36 202.83 203.19 203.05
  Q 202.81 203.51 202.22 203.59
  L 197.53 204.22
  A 1.04 1.04 0.0 0 1 196.50 203.72
  Q 195.91 202.74 196.76 201.99
  C 198.40 200.57 201.14 199.02 200.42 196.49
  L 204.57 196.05
  Z"
/>
<path fill="#2f2e41" d="
  M 187.48 196.34
  L 191.75 197.06
  L 191.30 203.52
  Q 191.25 204.34 190.46 204.12
  Q 189.55 203.86 189.39 202.90
  Q 189.24 202.01 188.72 202.75
  L 188.35 203.28
  Q 188.05 203.71 187.52 203.70
  Q 184.76 203.64 182.98 203.04
  Q 179.45 201.85 182.96 200.62
  Q 186.59 199.35 187.48 196.34
  Z"
/>
</svg>
