<?xml version="1.0" encoding="UTF-8" standalone="no"?>
<!DOCTYPE svg PUBLIC "-//W3C//DTD SVG 1.1//EN" "http://www.w3.org/Graphics/SVG/1.1/DTD/svg11.dtd">
<svg xmlns="http://www.w3.org/2000/svg" version="1.1" viewBox="0.00 0.00 250.00 250.00">
<path fill="#ffffff" d="
  M 123.37 56.26
  Q 129.47 50.59 137.40 49.99
  C 148.46 49.14 158.08 56.32 160.27 67.00
  C 162.92 79.86 153.88 91.21 145.41 99.57
  Q 134.79 110.04 123.79 119.69
  A 1.42 1.42 0.0 0 1 121.91 119.69
  Q 112.14 110.98 102.39 101.61
  C 96.19 95.64 89.89 88.73 86.77 80.76
  C 77.82 57.86 104.01 39.65 122.42 56.27
  Q 122.90 56.70 123.37 56.26
  Z
  M 124.05 60.26
  A 1.66 1.65 45.8 0 1 121.58 60.22
  C 113.55 50.95 98.39 50.52 91.33 61.39
  C 82.40 75.15 94.80 89.72 104.34 98.90
  Q 113.93 108.13 122.48 115.70
  Q 122.90 116.08 123.33 115.70
  Q 135.92 104.52 145.20 94.96
  Q 149.70 90.32 152.94 85.28
  C 157.87 77.61 159.41 68.26 153.94 60.73
  C 146.42 50.39 132.31 51.23 124.05 60.26
  Z"
/>
<path fill="#ffffff" d="
  M 118.83 91.81
  Q 127.90 94.31 132.93 87.10
  A 1.33 1.32 26.0 0 1 134.40 86.60
  Q 134.77 86.72 135.08 86.95
  A 1.65 1.64 -55.6 0 1 135.48 89.12
  C 129.91 98.14 115.47 98.07 110.14 88.92
  A 1.42 1.39 47.5 0 1 110.19 87.43
  Q 110.85 86.47 111.96 86.56
  A 1.31 1.29 76.2 0 1 112.97 87.18
  Q 115.18 90.81 118.83 91.81
  Z"
/>
<path fill="#ffffff" d="
  M 119.83 172.98
  Q 119.77 171.83 119.36 172.91
  C 118.69 174.67 117.48 176.78 115.47 177.08
  C 111.44 177.67 110.44 173.16 110.82 170.05
  Q 110.89 169.40 110.24 169.49
  L 108.28 169.76
  Q 107.62 169.85 107.45 170.49
  Q 106.84 172.74 105.48 174.37
  C 102.44 177.99 96.57 178.30 93.76 174.21
  C 90.49 169.47 92.07 161.54 97.56 159.08
  C 102.49 156.88 106.83 159.57 107.89 164.84
  Q 108.07 165.71 108.94 165.55
  L 110.64 165.25
  Q 111.19 165.15 111.33 164.61
  L 112.33 160.74
  Q 112.85 158.76 114.87 158.47
  L 115.67 158.36
  Q 117.98 158.03 117.29 160.26
  Q 115.74 165.24 115.52 170.26
  Q 115.42 172.52 117.10 171.01
  C 119.57 168.81 121.10 163.37 121.83 160.28
  A 2.45 2.45 0.0 0 1 124.19 158.39
  L 124.78 158.39
  Q 126.70 158.36 126.29 160.24
  Q 125.19 165.30 124.30 170.03
  Q 124.14 170.93 124.30 171.86
  A 1.23 1.23 0.0 0 0 126.25 172.63
  Q 127.87 171.42 129.30 169.75
  Q 129.65 169.34 129.62 168.79
  Q 128.94 158.64 132.52 148.17
  C 133.45 145.47 135.54 140.81 138.42 139.80
  C 144.65 137.60 144.85 145.90 144.08 149.66
  Q 142.05 159.65 135.23 168.76
  Q 134.67 169.51 134.82 170.41
  C 135.37 173.79 138.93 173.02 140.75 171.44
  Q 142.07 170.29 142.52 171.99
  L 142.65 172.49
  A 2.91 2.90 67.6 0 1 141.30 175.74
  Q 134.84 179.51 130.99 173.71
  Q 130.68 173.24 130.32 173.68
  C 127.79 176.75 120.20 180.02 119.83 172.98
  Z
  M 137.72 145.52
  C 135.69 151.23 134.63 157.30 134.30 163.51
  Q 134.25 164.52 134.76 163.65
  C 138.21 157.85 141.14 150.97 140.37 144.15
  A 0.86 0.85 -25.6 0 0 138.92 143.64
  Q 138.10 144.44 137.72 145.52
  Z
  M 99.46 172.94
  Q 102.64 173.06 103.36 169.35
  A 0.79 0.77 -66.3 0 0 103.07 168.58
  Q 100.63 166.68 100.89 162.99
  Q 100.93 162.41 100.36 162.52
  C 96.42 163.27 96.63 169.24 97.88 171.90
  A 1.82 1.81 -11.5 0 0 99.46 172.94
  Z"
/>
<path fill="#ffffff" d="
  M 183.82 143.48
  C 183.59 150.34 183.96 157.44 183.98 164.51
  C 183.99 168.23 183.25 172.54 180.11 174.95
  C 174.78 179.04 165.27 178.40 162.24 171.38
  Q 161.02 168.56 161.06 164.87
  Q 161.19 153.55 161.10 143.23
  A 0.34 0.33 -90.0 0 1 161.43 142.89
  Q 161.47 142.89 167.24 142.89
  A 0.30 0.30 0.0 0 1 167.54 143.18
  Q 167.76 154.34 167.73 165.20
  C 167.72 168.51 168.59 172.64 172.80 172.16
  Q 177.27 171.65 177.32 166.25
  Q 177.43 155.59 177.36 143.49
  Q 177.36 142.87 177.98 142.87
  L 183.27 142.91
  Q 183.84 142.91 183.82 143.48
  Z"
/>
<path fill="#ffffff" d="
  M 72.81 153.11
  C 73.71 156.99 81.32 158.72 84.55 160.42
  C 91.77 164.23 90.22 173.65 83.03 176.17
  C 76.78 178.36 64.01 178.32 64.36 168.48
  C 64.45 165.90 66.20 163.62 69.02 165.13
  A 1.47 1.47 0.0 0 1 69.79 166.59
  L 69.52 169.23
  A 2.76 2.75 13.7 0 0 71.25 172.07
  C 74.35 173.30 80.52 173.87 82.93 170.67
  C 86.78 165.59 77.29 162.80 74.37 161.63
  C 70.72 160.17 67.56 157.64 67.24 153.60
  C 66.12 139.17 95.06 139.57 90.20 153.98
  C 89.19 156.97 84.59 156.27 85.33 152.82
  Q 85.55 151.75 85.55 150.61
  A 2.51 2.50 -77.3 0 0 84.14 148.37
  Q 80.93 146.82 76.93 147.63
  C 74.25 148.18 72.15 150.24 72.81 153.11
  Z"
/>
<rect fill="#ffffff" x="-6.18" y="-2.24" transform="translate(150.46,164.47) rotate(-6.0)" width="12.36" height="4.48" rx="1.80"/>
</svg>
