<?xml version="1.0" encoding="UTF-8" standalone="no"?>
<!DOCTYPE svg PUBLIC "-//W3C//DTD SVG 1.1//EN" "http://www.w3.org/Graphics/SVG/1.1/DTD/svg11.dtd">
<svg xmlns="http://www.w3.org/2000/svg" version="1.1" viewBox="0.00 0.00 156.00 64.00">
<path fill="#ffffff" d="
  M 23.15 20.85
  Q 29.37 15.58 36.61 17.91
  C 41.64 19.53 45.14 24.41 45.26 29.74
  C 45.38 35.43 41.95 40.65 38.15 44.65
  Q 31.71 51.43 23.31 58.71
  Q 22.75 59.20 22.19 58.71
  Q 14.08 51.67 7.60 44.96
  C 2.42 39.60 -1.73 32.58 1.16 25.15
  C 4.58 16.36 15.62 14.93 22.27 20.84
  Q 22.70 21.23 23.15 20.85
  Z
  M 22.39 23.60
  C 21.07 22.55 20.07 21.36 18.53 20.58
  Q 13.42 18.00 8.62 20.14
  C 0.52 23.76 0.77 33.13 5.65 39.49
  C 10.41 45.69 16.58 51.01 22.45 56.37
  Q 22.72 56.62 22.99 56.38
  Q 29.70 50.52 36.17 43.90
  C 41.30 38.67 45.99 31.06 41.52 24.14
  C 37.31 17.61 28.35 17.65 23.39 23.50
  Q 22.94 24.04 22.39 23.60
  Z"
/>
<path fill="#ffffff" d="
  M 99.13 48.76
  C 98.62 49.65 98.22 50.44 97.45 51.15
  C 94.12 54.25 91.78 49.74 92.25 46.75
  Q 92.38 45.87 91.51 45.99
  L 90.45 46.13
  Q 89.66 46.23 89.46 47.01
  C 88.28 51.61 83.10 53.86 79.36 50.66
  C 74.65 46.64 77.99 36.62 84.85 37.11
  Q 88.87 37.39 89.94 42.46
  Q 90.10 43.19 90.79 42.90
  Q 91.23 42.72 91.71 42.69
  Q 92.52 42.63 92.74 41.84
  L 93.61 38.68
  Q 94.03 37.19 95.57 37.14
  L 96.38 37.12
  Q 97.95 37.07 97.47 38.57
  Q 96.38 41.93 96.11 45.09
  Q 95.70 49.87 98.31 45.85
  Q 100.04 43.18 100.97 38.90
  A 2.18 2.18 0.0 0 1 102.87 37.19
  L 103.42 37.13
  Q 105.01 36.96 104.64 38.51
  Q 103.56 43.01 102.99 47.39
  Q 102.77 49.03 104.34 48.51
  Q 105.23 48.22 105.97 47.54
  Q 107.30 46.32 107.24 44.52
  Q 106.89 34.93 110.80 26.11
  C 111.77 23.92 114.30 21.09 116.90 22.16
  C 118.90 22.97 119.30 26.75 119.09 28.57
  C 118.35 34.87 115.12 40.68 111.50 46.01
  Q 111.19 46.46 111.39 46.96
  C 112.43 49.53 114.83 48.84 116.36 47.38
  Q 117.13 46.66 117.50 47.64
  Q 118.33 49.85 116.27 51.07
  Q 111.50 53.88 108.43 49.53
  Q 108.12 49.09 107.77 49.50
  Q 105.27 52.38 101.48 52.06
  Q 100.94 52.02 100.59 51.59
  Q 99.64 50.41 99.55 48.85
  Q 99.50 48.12 99.13 48.76
  Z
  M 114.12 25.92
  C 112.36 30.35 111.26 35.76 111.12 40.95
  Q 111.09 41.85 111.56 41.07
  C 114.12 36.77 116.74 30.72 115.82 25.62
  A 0.66 0.66 0.0 0 0 114.93 25.12
  Q 114.35 25.35 114.12 25.92
  Z
  M 86.00 45.33
  C 84.83 44.25 84.25 42.58 84.27 40.99
  Q 84.28 40.42 83.71 40.49
  C 80.86 40.81 81.00 45.67 81.71 47.49
  A 2.00 2.00 0.0 0 0 84.77 48.37
  Q 85.77 47.62 86.24 46.32
  Q 86.44 45.75 86.00 45.33
  Z"
/>
<path fill="#ffffff" d="
  M 61.91 48.50
  C 64.49 49.06 69.45 49.16 70.51 45.94
  C 72.55 39.77 55.34 41.45 57.61 30.96
  C 58.81 25.41 65.82 24.21 70.59 25.22
  Q 77.15 26.60 75.92 33.36
  A 1.85 1.82 -12.8 0 1 75.16 34.55
  Q 73.01 36.03 72.00 33.74
  A 1.73 1.66 40.9 0 1 71.90 32.64
  C 72.30 30.98 72.01 29.22 70.11 28.70
  C 67.18 27.89 61.79 28.05 61.72 32.18
  C 61.70 33.78 63.29 35.26 64.64 35.83
  Q 68.03 37.24 71.28 38.78
  C 73.18 39.69 74.77 41.67 74.96 43.79
  C 75.31 47.98 72.61 50.84 68.74 51.73
  C 63.06 53.04 53.61 52.17 55.34 43.93
  Q 55.73 42.06 57.63 42.20
  L 58.15 42.24
  A 1.45 1.44 -79.8 0 1 59.43 44.09
  Q 58.39 47.73 61.91 48.50
  Z"
/>
<path fill="#ffffff" d="
  M 148.12 26.40
  L 152.25 26.47
  A 0.35 0.35 0.0 0 1 152.60 26.82
  Q 152.44 34.39 152.73 42.47
  C 152.85 45.83 151.76 49.99 148.32 51.41
  C 141.75 54.13 135.68 50.98 135.56 43.40
  Q 135.43 35.36 135.52 26.79
  A 0.38 0.37 0.0 0 1 135.90 26.42
  L 140.14 26.41
  Q 140.50 26.41 140.50 26.77
  L 140.50 44.22
  Q 140.50 47.02 143.01 48.25
  Q 143.59 48.54 144.19 48.45
  Q 147.75 47.95 147.75 44.36
  L 147.75 26.76
  Q 147.75 26.39 148.12 26.40
  Z"
/>
<rect fill="#ffffff" x="-6.19" y="-2.25" transform="translate(125.70,39.48) rotate(-5.5)" width="12.38" height="4.50" rx="1.91"/>
<path fill="#ffffff" d="
  M 19.78 41.96
  Q 25.42 43.99 28.93 39.18
  A 0.51 0.51 0.0 0 1 29.70 39.11
  L 29.98 39.38
  Q 30.62 40.00 30.11 40.73
  C 26.71 45.60 19.38 45.86 15.64 41.22
  Q 15.09 40.53 15.24 39.66
  Q 15.27 39.48 15.42 39.36
  Q 16.33 38.61 16.95 39.62
  Q 18.01 41.32 19.78 41.96
  Z"
/>
</svg>
